<svg xmlns="http://www.w3.org/2000/svg" width="95" height="95" viewBox="0 0 95 95" text-rendering="geometricPrecision" font-family="sans-serif">
<g transform="translate(16, 16)">
  <g id="Root">
    <g id="ReusableComposeNode">
      <g transform="translate(0 0) scale(0.63 0.63)">
        <path d="M49.95 1.48 A 50.03 50.03 89.98 0 0 34.3 98.79 c 2.46 0.61 3.07 -0.92 3.07 -2.15 l0 -8.59 C 23.55 91.11 20.79 80.98 20.79 80.98 c -2.46 -5.83 -5.83 -7.37 -5.83 -7.37 c -4.3 -3.07 0.61 -3.07 0.61 -3.07 c 4.91 0.31 7.67 5.22 7.67 5.22 C 27.55 84.05 34.6 81.6 37.67 80.37 c 0.31 -3.07 1.84 -5.52 3.07 -6.75 c -11.05 -1.23 -22.71 -5.52 -22.71 -24.56 c 0 -5.52 1.84 -10.13 5.22 -13.51 c -0.61 -1.23 -2.15 -6.45 0.31 -13.2 c 0 0 4.3 -1.53 13.81 4.91 a 47.88 47.89 90.02 0 1 25.17 0 c 9.21 -6.14 13.81 -4.91 13.81 -4.91 c 2.46 6.75 0.92 11.97 0.31 13.2 c 3.07 3.38 5.22 7.98 5.22 13.2 c 0 19.34 -11.66 23.63 -22.71 24.56 c 1.53 1.84 3.07 4.91 3.07 9.21 l0 14.12 c 0 1.23 0.92 2.76 3.68 2.15 A 50.03 50.03 89.98 0 0 49.95 1.48" fill="#F6EDFF" fill-opacity="0.74" fill-rule="evenodd"/>
      </g>
    </g>
  </g>
</g>
</svg>
