<svg version="1.1" id="Layer_1" xmlns="http://www.w3.org/2000/svg" xmlns:xlink="http://www.w3.org/1999/xlink" x="0px" y="0px"
	 width="100%" viewBox="0 0 1680 1680" enable-background="new 0 0 1680 1680" xml:space="preserve">
<path fill="#FFFFFF" opacity="1.000000" stroke="none" 
	d="
M1681.000000,113.000000 
	C1681.000000,599.368225 1681.000000,1085.736450 1680.677368,1572.258789 
	C1679.975220,1572.733765 1679.395020,1572.980591 1679.244873,1573.386475 
	C1670.250366,1597.678467 1656.040405,1618.306396 1636.869141,1635.798462 
	C1622.320435,1649.072876 1606.041626,1659.425537 1587.828369,1666.473145 
	C1571.002197,1672.984253 1553.546997,1677.050293 1535.242676,1677.047852 
	C1080.909668,1676.986816 626.576721,1676.985596 172.243744,1677.073853 
	C159.556137,1677.076294 147.070190,1676.110107 134.803680,1672.973633 
	C103.497070,1664.968262 76.688316,1649.515015 54.781452,1625.451416 
	C41.530731,1610.895996 31.095821,1594.775391 23.930264,1576.507690 
	C17.507406,1560.133667 13.026693,1543.284058 13.025431,1525.564697 
	C12.993122,1072.065063 12.981988,618.565430 13.124204,165.065842 
	C13.127153,155.658966 14.352555,146.133896 16.091446,136.867340 
	C22.503687,102.696457 39.090717,74.205002 64.689507,50.672916 
	C79.064331,37.458630 95.112930,27.150410 113.197060,20.023445 
	C129.857727,13.457476 147.035095,9.004335 165.113007,9.004126 
	C622.112671,8.998824 1079.112305,8.981459 1536.111938,9.128978 
	C1545.513184,9.132013 1555.149536,10.080461 1564.272461,12.269885 
	C1596.774536,20.069998 1624.834839,35.677197 1647.461548,60.808941 
	C1661.175537,76.041176 1671.928955,92.864357 1679.092285,112.035278 
	C1679.275635,112.525955 1680.344238,112.685829 1681.000000,113.000000 
M972.541443,560.099976 
	C982.436523,564.645081 992.331543,569.190125 1002.520569,573.870239 
	C1004.708862,569.549194 1006.797119,565.425598 1009.401428,560.795410 
	C1022.963440,535.826111 1036.553711,510.872009 1050.074585,485.880432 
	C1056.155762,474.640167 1062.098511,463.325012 1068.643677,451.628387 
	C1094.013794,404.906708 1119.384033,358.185028 1144.805420,311.368835 
	C1143.177979,310.344543 1142.376831,309.762329 1141.509521,309.305908 
	C1095.651001,285.171906 1047.648315,266.690674 997.105957,255.086105 
	C983.203186,251.894012 969.085815,249.636215 954.278748,246.740524 
	C945.750427,245.496567 937.259216,243.787933 928.686279,243.101807 
	C908.547607,241.490067 888.385803,239.768021 868.203064,239.233261 
	C851.631836,238.794189 835.016907,240.001450 817.518738,240.359207 
	C814.535095,240.607346 811.540222,240.762177 808.569946,241.120697 
	C798.691345,242.313049 788.821716,243.578598 778.067932,244.779037 
	C750.547791,248.138901 723.498535,253.789993 696.072754,261.643585 
	C642.667358,276.443512 592.429199,298.538544 545.147705,327.376495 
	C537.210632,332.217529 529.612244,337.613983 521.184082,342.934235 
	C508.730194,352.034058 495.744202,360.498993 483.948730,370.384521 
	C466.802979,384.754028 450.515594,400.147797 433.293213,415.402313 
	C422.778656,426.703461 411.953125,437.734833 401.843506,449.387360 
	C393.052002,459.520752 385.069702,470.356232 376.182831,481.248749 
	C353.263855,511.551392 333.447693,543.780090 317.083923,578.052307 
	C310.087219,592.706177 304.155121,607.868286 297.245880,623.311279 
	C290.466400,643.969971 282.899231,664.412048 277.141296,685.351624 
	C271.959229,704.197205 268.761414,723.588318 264.290344,743.425110 
	C261.528107,768.152527 257.678192,792.820740 256.327728,817.625000 
	C255.120956,839.790710 256.667175,862.106628 257.037415,884.355713 
	C257.046906,884.925598 257.507446,885.488098 257.914703,886.957031 
	C258.609741,894.488098 258.986633,902.065002 260.064056,909.540955 
	C262.536224,926.695007 264.724152,943.928101 268.199799,960.888855 
	C271.722961,978.081177 276.655670,994.984619 280.954468,1012.798706 
	C289.547577,1036.373535 297.259430,1060.320435 307.007599,1083.407593 
	C315.066620,1102.494141 325.531311,1120.564941 335.060089,1139.773315 
	C344.348114,1154.521606 353.199982,1169.567871 363.022217,1183.951294 
	C379.430573,1207.979492 397.514923,1230.725464 418.172974,1252.232910 
	C440.966309,1276.602051 465.506073,1299.074097 492.214844,1319.066650 
	C505.377686,1328.919434 519.195618,1337.897095 533.136353,1347.805298 
	C553.132446,1359.073730 572.942261,1370.692261 593.201294,1381.466064 
	C603.723022,1387.061523 615.038757,1391.164062 626.493042,1396.444092 
	C664.740967,1412.510742 704.294617,1424.310181 745.077087,1431.741455 
	C762.158203,1434.853882 779.492188,1436.579224 797.549988,1439.193604 
	C805.948975,1439.865967 814.339417,1440.956055 822.748657,1441.128662 
	C843.854797,1441.562012 864.969482,1441.593994 886.081055,1441.730713 
	C887.375977,1441.739136 888.674072,1441.258057 890.900757,1441.134521 
	C911.810913,1438.931641 932.776184,1437.142700 953.610291,1434.368530 
	C965.856934,1432.737793 977.895081,1429.541626 990.840637,1427.071777 
	C994.895203,1426.042358 998.949768,1425.012939 1003.801941,1424.015015 
	C1056.454590,1410.936401 1106.243286,1390.792358 1153.875977,1363.826660 
	C1145.749268,1349.750977 1137.955444,1336.252197 1130.013794,1322.075684 
	C1121.269409,1306.720825 1112.524902,1291.365845 1103.635010,1275.350220 
	C1091.278076,1253.519897 1078.956177,1231.669922 1066.552612,1209.865967 
	C1057.444580,1193.854980 1048.229980,1177.904419 1038.947021,1161.362183 
	C1038.641235,1161.213257 1038.335449,1161.064331 1038.102295,1160.970703 
	C1038.102295,1160.970703 1038.153809,1160.895630 1038.216919,1160.168945 
	C1027.770386,1141.539429 1017.323853,1122.909790 1007.317139,1105.064575 
	C989.057068,1112.878296 971.551453,1120.369141 953.256531,1127.901489 
	C941.419922,1131.001953 929.583313,1134.102539 917.014221,1137.279175 
	C912.112610,1138.189087 907.244629,1139.406860 902.302612,1139.946655 
	C891.058472,1141.174927 879.793884,1142.630615 868.508057,1142.950806 
	C856.033936,1143.304688 843.518311,1142.682129 831.037292,1142.118530 
	C823.912598,1141.796753 816.820862,1140.744507 808.993042,1139.538086 
	C803.639038,1138.505249 798.130798,1137.966553 792.958252,1136.352295 
	C772.943909,1130.105713 753.036560,1123.516479 732.593628,1116.546387 
	C688.054443,1096.177124 650.251709,1067.054932 620.237854,1028.354492 
	C609.581238,1014.613892 600.727539,999.474915 590.951111,984.259705 
	C586.010803,973.552002 580.640137,963.018677 576.218018,952.101074 
	C566.446655,927.977112 559.938965,902.882568 557.400085,876.998108 
	C555.735046,860.023193 554.418701,842.806824 555.386780,825.837769 
	C556.410889,807.887146 560.328064,790.101501 563.225281,771.483826 
	C567.148071,758.810425 570.463501,745.909851 575.103882,733.504883 
	C591.080566,690.795654 615.834534,653.756714 648.900513,622.366821 
	C657.321045,614.373169 666.349915,607.020386 675.764038,599.130676 
	C694.570923,585.247620 714.522095,573.336487 735.921143,563.852600 
	C767.200928,549.989624 799.962402,542.018860 834.877686,538.916138 
	C863.158508,536.702820 891.206726,538.477844 919.789551,544.062561 
	C937.170837,549.267273 954.552185,554.471924 972.541443,560.099976 
z"/>
<path fill="#000000" opacity="1.000000" stroke="none" 
	d="
M1681.000000,112.531342 
	C1680.344238,112.685829 1679.275635,112.525955 1679.092285,112.035278 
	C1671.928955,92.864357 1661.175537,76.041176 1647.461548,60.808941 
	C1624.834839,35.677197 1596.774536,20.069998 1564.272461,12.269885 
	C1555.149536,10.080461 1545.513184,9.132013 1536.111938,9.128978 
	C1079.112305,8.981459 622.112671,8.998824 165.113007,9.004126 
	C147.035095,9.004335 129.857727,13.457476 113.197060,20.023445 
	C95.112930,27.150410 79.064331,37.458630 64.689507,50.672916 
	C39.090717,74.205002 22.503687,102.696457 16.091446,136.867340 
	C14.352555,146.133896 13.127153,155.658966 13.124204,165.065842 
	C12.981988,618.565430 12.993122,1072.065063 13.025431,1525.564697 
	C13.026693,1543.284058 17.507406,1560.133667 23.930264,1576.507690 
	C31.095821,1594.775391 41.530731,1610.895996 54.781452,1625.451416 
	C76.688316,1649.515015 103.497070,1664.968262 134.803680,1672.973633 
	C147.070190,1676.110107 159.556137,1677.076294 172.243744,1677.073853 
	C626.576721,1676.985596 1080.909668,1676.986816 1535.242676,1677.047852 
	C1553.546997,1677.050293 1571.002197,1672.984253 1587.828369,1666.473145 
	C1606.041626,1659.425537 1622.320435,1649.072876 1636.869141,1635.798462 
	C1656.040405,1618.306396 1670.250366,1597.678467 1679.244873,1573.386475 
	C1679.395020,1572.980591 1679.975220,1572.733765 1680.677368,1572.706299 
	C1681.000000,1608.996948 1681.000000,1644.994019 1681.000000,1680.993164 
	C1121.049561,1680.995483 561.099182,1680.995483 1.074388,1680.995483 
	C1.074388,1121.096191 1.074388,561.192383 1.074388,1.144283 
	C561.000000,1.144283 1121.000000,1.144283 1681.000000,1.144283 
	C1681.000000,38.068630 1681.000000,75.065659 1681.000000,112.531342 
z"/>
<path fill="#72A4F7" opacity="1.000000" stroke="none" 
	d="
M562.981506,772.243835 
	C560.328064,790.101501 556.410889,807.887146 555.386780,825.837769 
	C554.418701,842.806824 555.735046,860.023193 557.400085,876.998108 
	C559.938965,902.882568 566.446655,927.977112 576.218018,952.101074 
	C580.640137,963.018677 586.010803,973.552002 590.855347,984.951416 
	C590.276978,986.878174 589.805481,988.117676 589.310120,989.347595 
	C572.129456,1032.010620 554.989319,1074.690186 537.732300,1117.322266 
	C533.697388,1127.290283 529.265503,1137.097412 524.782593,1146.714966 
	C516.701233,1143.298950 508.870087,1140.104370 501.001526,1137.004883 
	C490.682007,1132.940063 480.333038,1128.949951 469.998413,1124.543945 
	C470.449097,1122.569092 470.754272,1120.920288 471.368469,1119.395996 
	C481.295074,1094.758911 491.255493,1070.135742 501.219940,1045.513916 
	C507.696808,1029.509888 514.140259,1013.491943 520.718811,997.529724 
	C522.245850,993.824463 522.144775,991.656006 517.669189,990.155151 
	C510.915863,987.890442 504.453400,984.768921 497.829987,982.104370 
	C470.263336,971.014709 442.695282,959.928284 415.089966,948.935547 
	C411.985321,947.699341 411.458069,946.105591 412.873688,943.219421 
	C414.406769,940.093750 415.661407,936.827759 416.963470,933.593140 
	C429.608795,902.178650 442.233734,870.755981 454.874084,839.339478 
	C467.576141,807.769409 480.289093,776.203613 493.184906,744.652283 
	C493.372528,744.668579 493.735626,744.568298 494.093567,744.729858 
	C500.462799,747.319763 506.464294,749.772705 512.487244,752.171814 
	C529.313904,758.874390 546.149475,765.554688 562.981506,772.243835 
z"/>
<path fill="#4BB682" opacity="1.000000" stroke="none" 
	d="
M257.757660,886.054016 
	C257.507446,885.488098 257.046906,884.925598 257.037415,884.355713 
	C256.667175,862.106628 255.120956,839.790710 256.327728,817.625000 
	C257.678192,792.820740 261.528107,768.152527 264.879639,743.183716 
	C310.514923,761.036072 355.560883,779.129822 400.822205,797.310059 
	C404.753723,787.555847 408.306763,778.619141 411.953064,769.720703 
	C418.615356,753.461792 425.332794,737.225525 432.396759,721.022339 
	C439.554626,723.728699 446.344543,726.388611 453.131042,729.057190 
	C465.152344,733.784302 477.171600,738.516663 489.142456,743.613098 
	C488.979156,744.464355 488.926697,744.974182 488.742279,745.430786 
	C467.686584,797.571228 446.636353,849.713928 425.545990,901.840332 
	C419.699554,916.290161 413.732178,930.691101 407.434662,945.091736 
	C402.725983,943.432434 398.372345,941.871765 394.084625,940.147217 
	C356.690674,925.107483 319.324341,909.998840 281.910126,895.009705 
	C273.942230,891.817505 265.812744,889.028625 257.757660,886.054016 
z"/>
<path fill="#DD4F43" opacity="1.000000" stroke="none" 
	d="
M833.954224,538.822998 
	C799.962402,542.018860 767.200928,549.989624 735.921143,563.852600 
	C714.522095,573.336487 694.570923,585.247620 675.246704,598.923462 
	C652.047913,589.494080 629.354675,580.300659 606.690552,571.036133 
	C597.070129,567.103455 587.510498,563.021851 577.948425,558.626648 
	C578.892639,555.938416 579.804016,553.628296 580.731750,551.324829 
	C599.162292,505.566315 617.594666,459.808563 636.024902,414.043213 
	C636.023132,414.035767 636.032959,414.044189 636.361572,414.176086 
	C643.758911,417.181824 650.821350,420.071136 657.897278,422.927094 
	C709.279419,443.665955 760.678345,464.363098 812.037964,485.157501 
	C824.478149,490.194244 836.791199,495.544830 849.003174,501.107574 
	C843.880493,513.917053 838.917358,526.370056 833.954224,538.822998 
z"/>
<path fill="#E47369" opacity="1.000000" stroke="none" 
	d="
M577.923279,559.007935 
	C587.510498,563.021851 597.070129,567.103455 606.690552,571.036133 
	C629.354675,580.300659 652.047913,589.494080 674.914368,599.044678 
	C666.349915,607.020386 657.321045,614.373169 648.900513,622.366821 
	C615.834534,653.756714 591.080566,690.795654 575.103882,733.504883 
	C570.463501,745.909851 567.148071,758.810425 563.103394,771.863831 
	C546.149475,765.554688 529.313904,758.874390 512.487244,752.171814 
	C506.464294,749.772705 500.462799,747.319763 494.152161,744.381592 
	C498.465942,732.030334 503.079102,720.188904 507.811676,708.040833 
	C504.448669,706.652588 501.422607,705.365723 498.368713,704.148926 
	C481.271179,697.336670 464.166931,690.541260 447.029419,683.547302 
	C446.993866,683.354431 446.850891,682.989197 447.019653,682.666382 
	C463.380554,642.323364 479.604950,602.316223 495.741577,562.273743 
	C499.641418,552.596436 503.251221,542.802185 507.175964,533.020752 
	C507.357544,532.979858 507.727478,532.938538 507.927032,533.249268 
	C511.426422,535.049194 514.683167,536.644104 518.033264,538.009827 
	C535.834412,545.266724 553.647949,552.493896 571.490112,559.649048 
	C573.617004,560.502014 576.097778,562.314697 577.923279,559.007935 
z"/>
<path fill="#4491D7" opacity="1.000000" stroke="none" 
	d="
M1039.062744,1161.927002 
	C1048.229980,1177.904419 1057.444580,1193.854980 1066.552612,1209.865967 
	C1078.956177,1231.669922 1091.278076,1253.519897 1103.339844,1275.670654 
	C1093.338501,1272.155640 1083.593140,1268.414917 1073.944458,1264.439697 
	C1069.891846,1262.770020 1067.661011,1262.864990 1065.771240,1267.764648 
	C1059.518555,1283.976318 1052.632324,1299.943726 1045.618286,1315.963867 
	C1040.790649,1314.112671 1036.339233,1312.288818 1031.876099,1310.494141 
	C980.925293,1290.003906 929.972778,1269.518066 878.712646,1248.887451 
	C876.964355,1248.111816 875.524048,1247.479858 874.106201,1246.490479 
	C882.263489,1225.993896 890.440186,1205.871216 898.520020,1185.709717 
	C904.989990,1169.565308 911.342224,1153.373657 917.746704,1137.203003 
	C929.583313,1134.102539 941.419922,1131.001953 954.009705,1127.956787 
	C974.537048,1136.006592 994.284729,1144.067505 1014.098450,1151.962769 
	C1022.042053,1155.128296 1030.130981,1157.928955 1038.153809,1160.895630 
	C1038.153809,1160.895630 1038.102295,1160.970703 1038.153931,1161.185059 
	C1038.491211,1161.575195 1038.776978,1161.751099 1039.062744,1161.927002 
z"/>
<path fill="#6F95C6" opacity="1.000000" stroke="none" 
	d="
M525.016235,1146.978638 
	C529.265503,1137.097412 533.697388,1127.290283 537.732300,1117.322266 
	C554.989319,1074.690186 572.129456,1032.010620 589.310120,989.347595 
	C589.805481,988.117676 590.276978,986.878174 590.905273,985.308716 
	C600.727539,999.474915 609.581238,1014.613892 620.237854,1028.354492 
	C650.251709,1067.054932 688.054443,1096.177124 732.754272,1117.156250 
	C727.486145,1131.173828 722.015503,1144.564941 716.638916,1157.993774 
	C709.042786,1176.966187 701.516052,1195.966431 693.700928,1215.205811 
	C692.793213,1216.743164 692.144165,1218.029297 691.386597,1219.530518 
	C689.169067,1218.666748 687.314087,1217.965454 685.475098,1217.224609 
	C665.412537,1209.140991 645.341797,1201.077271 625.294006,1192.957275 
	C591.525879,1179.280151 557.772705,1165.566162 524.053467,1151.511230 
	C524.401184,1149.762817 524.708740,1148.370728 525.016235,1146.978638 
z"/>
<path fill="#F0A31A" opacity="1.000000" stroke="none" 
	d="
M849.162720,500.751038 
	C836.791199,495.544830 824.478149,490.194244 812.037964,485.157501 
	C760.678345,464.363098 709.279419,443.665955 657.897278,422.927094 
	C650.821350,420.071136 643.758911,417.181824 636.488892,413.834381 
	C639.542419,405.201630 642.766113,397.029846 646.058838,388.885956 
	C652.459167,373.055817 658.904175,357.243744 665.319824,341.419830 
	C673.168091,322.062286 681.069092,302.725708 688.814087,283.326843 
	C691.692078,276.118286 694.193115,268.759186 696.866028,261.468719 
	C723.498535,253.789993 750.547791,248.138901 778.716187,245.096375 
	C789.963928,249.637909 800.563354,253.862106 811.124634,258.459656 
	C810.881836,259.463440 810.714966,260.109100 810.467407,260.722229 
	C789.869751,311.738739 769.265259,362.752502 748.662781,413.767120 
	C743.760925,425.904663 738.863892,438.044128 733.853455,450.458374 
	C774.198303,466.724518 814.099670,482.811859 854.116089,499.102722 
	C854.231140,499.306244 854.470459,499.707977 854.098633,499.864899 
	C852.205505,500.264893 850.684082,500.507965 849.162720,500.751038 
z"/>
<path fill="#72A4F7" opacity="1.000000" stroke="none" 
	d="
M955.066956,246.949692 
	C969.085815,249.636215 983.203186,251.894012 997.105957,255.086105 
	C1047.648315,266.690674 1095.651001,285.171906 1141.509521,309.305908 
	C1142.376831,309.762329 1143.177979,310.344543 1144.805420,311.368835 
	C1119.384033,358.185028 1094.013794,404.906708 1067.999756,451.786438 
	C1052.253418,445.943604 1037.151001,439.942688 1022.034790,433.706696 
	C1022.020935,433.471619 1022.000000,433.000000 1022.270569,432.774078 
	C1032.746338,407.227020 1042.951416,381.905884 1053.353394,356.096436 
	C1012.469055,339.556366 972.225220,323.275452 931.989563,306.611633 
	C935.818542,296.511597 939.666260,286.804993 943.452576,277.074432 
	C947.355225,267.044983 951.197998,256.992249 955.066956,246.949692 
z"/>
<path fill="#4490D6" opacity="1.000000" stroke="none" 
	d="
M446.850891,682.989136 
	C446.850891,682.989197 446.993866,683.354431 446.764954,683.809570 
	C441.699799,696.503113 436.863556,708.741455 432.027283,720.979797 
	C425.332794,737.225525 418.615356,753.461792 411.953064,769.720703 
	C408.306763,778.619141 404.753723,787.555847 400.822205,797.310059 
	C355.560883,779.129822 310.514923,761.036072 265.078674,742.840576 
	C268.761414,723.588318 271.959229,704.197205 277.141296,685.351624 
	C282.899231,664.412048 290.466400,643.969971 297.831543,623.236023 
	C299.307220,623.614136 300.169464,624.135864 301.091431,624.510742 
	C322.480835,633.208618 343.845123,641.969543 365.287140,650.536011 
	C373.740753,653.913391 382.370392,656.850281 391.137878,660.267944 
	C409.854218,668.028442 428.352570,675.508789 446.850891,682.989136 
z"/>
<path fill="#F6C740" opacity="1.000000" stroke="none" 
	d="
M693.959656,1214.954712 
	C701.516052,1195.966431 709.042786,1176.966187 716.638916,1157.993774 
	C722.015503,1144.564941 727.486145,1131.173828 733.002075,1117.410400 
	C753.036560,1123.516479 772.943909,1130.105713 792.958252,1136.352295 
	C798.130798,1137.966553 803.639038,1138.505249 809.195312,1140.158203 
	C800.281921,1163.598022 791.166199,1186.417847 781.969055,1209.441528 
	C783.566406,1210.195190 784.873413,1210.891113 786.238403,1211.443970 
	C800.720337,1217.309570 815.226318,1223.116211 829.696289,1229.011230 
	C844.308838,1234.964478 858.888123,1240.999268 873.353821,1247.364746 
	C863.760498,1271.173828 854.295410,1294.616333 844.474548,1318.008301 
	C809.144043,1303.866455 774.153870,1289.813477 739.200806,1275.669067 
	C720.742554,1268.199707 702.348755,1260.570923 683.947510,1252.630127 
	C688.567017,1240.402100 693.164856,1228.558350 697.876587,1216.421143 
	C696.382080,1215.861694 695.170898,1215.408203 693.959656,1214.954712 
z"/>
<path fill="#72A4F7" opacity="1.000000" stroke="none" 
	d="
M879.020630,1249.031006 
	C929.972778,1269.518066 980.925293,1290.003906 1031.876099,1310.494141 
	C1036.339233,1312.288818 1040.790649,1314.112671 1045.635376,1316.202637 
	C1046.023315,1316.482178 1046.064087,1316.959106 1045.912964,1317.292480 
	C1040.173950,1331.426880 1034.554688,1345.215332 1029.005371,1359.031982 
	C1020.313538,1380.672485 1011.668945,1402.332031 1003.004395,1423.983398 
	C998.949768,1425.012939 994.895203,1426.042358 990.209778,1426.782959 
	C962.707031,1415.652832 935.835144,1404.811768 908.974731,1393.589111 
	C914.031555,1380.387573 919.021484,1367.545166 924.167786,1354.765991 
	C925.226746,1352.136230 925.266541,1350.709106 922.176086,1349.485474 
	C898.394836,1340.070312 874.683655,1330.478516 850.958130,1320.550293 
	C851.260864,1318.881836 851.392578,1317.538940 851.875671,1316.337280 
	C860.899048,1293.891724 869.964233,1271.463135 879.020630,1249.031006 
z"/>
<path fill="#4BB682" opacity="1.000000" stroke="none" 
	d="
M796.711182,1438.935181 
	C779.492188,1436.579224 762.158203,1434.853882 745.077087,1431.741455 
	C704.294617,1424.310181 664.740967,1412.510742 626.283203,1395.824219 
	C633.039490,1377.821289 640.028870,1360.447388 646.964905,1343.052124 
	C653.345764,1327.049316 659.669312,1311.023560 666.404053,1295.007446 
	C668.834412,1295.660889 670.929626,1296.188843 672.914734,1296.989624 
	C684.299927,1301.581543 695.648132,1306.265503 707.029114,1310.868042 
	C739.631653,1324.053101 772.229370,1337.250122 804.862732,1350.358276 
	C812.537903,1353.441162 820.346375,1356.192139 828.037903,1359.461548 
	C820.985901,1377.224609 813.939148,1394.601685 807.014038,1412.027222 
	C803.467407,1420.951904 800.138489,1429.963135 796.711182,1438.935181 
z"/>
<path fill="#E47369" opacity="1.000000" stroke="none" 
	d="
M532.717102,1347.270874 
	C519.195618,1337.897095 505.377686,1328.919434 492.214844,1319.066650 
	C465.506073,1299.074097 440.966309,1276.602051 418.132019,1251.581787 
	C434.458221,1210.480469 450.825409,1170.030029 467.558258,1129.671143 
	C486.326721,1137.208740 504.729492,1144.654663 523.093140,1152.475098 
	C522.071472,1155.484985 521.149902,1158.145142 520.096802,1160.751953 
	C512.144104,1180.439209 504.155426,1200.112061 496.206818,1219.800903 
	C495.129944,1222.468384 494.017944,1224.934082 498.107788,1226.541260 
	C522.031128,1235.941772 545.881714,1245.526978 569.801025,1255.276611 
	C569.845154,1255.503296 569.891235,1255.963867 569.638794,1256.205688 
	C557.163208,1286.721924 544.940186,1316.996460 532.717102,1347.270874 
z"/>
<path fill="#72A4F7" opacity="1.000000" stroke="none" 
	d="
M390.919922,659.987793 
	C382.370392,656.850281 373.740753,653.913391 365.287140,650.536011 
	C343.845123,641.969543 322.480835,633.208618 301.091431,624.510742 
	C300.169464,624.135864 299.307220,623.614136 298.078217,622.980103 
	C304.155121,607.868286 310.087219,592.706177 317.083923,578.052307 
	C333.447693,543.780090 353.263855,511.551392 376.806946,481.215881 
	C383.716003,483.769989 389.999237,486.361328 396.286316,488.943176 
	C414.203278,496.300781 432.121765,503.654572 449.992188,511.380829 
	C433.931732,551.583740 417.888245,591.403503 401.928192,631.256653 
	C398.115814,640.776489 394.581909,650.407776 390.919922,659.987793 
z"/>
<path fill="#1DA362" opacity="1.000000" stroke="none" 
	d="
M257.836182,886.505493 
	C265.812744,889.028625 273.942230,891.817505 281.910126,895.009705 
	C319.324341,909.998840 356.690674,925.107483 394.084625,940.147217 
	C398.372345,941.871765 402.725983,943.432434 407.429565,945.444519 
	C402.187500,959.800781 396.613831,973.801453 390.930664,987.757568 
	C383.005219,1007.219666 374.997864,1026.648438 366.652588,1046.034180 
	C357.813416,1042.635498 349.337555,1039.318481 340.883057,1035.947754 
	C320.906921,1027.983643 300.941010,1019.993958 280.970978,1012.014587 
	C276.655670,994.984619 271.722961,978.081177 268.199799,960.888855 
	C264.724152,943.928101 262.536224,926.695007 260.064056,909.540955 
	C258.986633,902.065002 258.609741,894.488098 257.836182,886.505493 
z"/>
<path fill="#F4B810" opacity="1.000000" stroke="none" 
	d="
M696.469360,261.556152 
	C694.193115,268.759186 691.692078,276.118286 688.814087,283.326843 
	C681.069092,302.725708 673.168091,322.062286 665.319824,341.419830 
	C658.904175,357.243744 652.459167,373.055817 646.058838,388.885956 
	C642.766113,397.029846 639.542419,405.201630 636.160278,413.702515 
	C636.032959,414.044189 636.023132,414.035767 635.694153,413.885437 
	C634.278870,413.333527 633.180908,412.960815 632.108032,412.526154 
	C594.933716,397.466766 557.788330,382.335205 520.552856,367.428619 
	C516.327942,365.737244 512.880432,364.449951 515.299927,358.796936 
	C517.672241,353.312897 519.764771,348.033356 521.857361,342.753815 
	C529.612244,337.613983 537.210632,332.217529 545.147705,327.376495 
	C592.429199,298.538544 642.667358,276.443512 696.469360,261.556152 
z"/>
<path fill="#44925C" opacity="1.000000" stroke="none" 
	d="
M467.192566,1129.579712 
	C450.825409,1170.030029 434.458221,1210.480469 417.986633,1251.255493 
	C397.514923,1230.725464 379.430573,1207.979492 363.022217,1183.951294 
	C353.199982,1169.567871 344.348114,1154.521606 335.065796,1139.061523 
	C338.517883,1129.928711 342.065399,1121.547241 345.383667,1113.076050 
	C349.055023,1103.703491 352.516571,1094.248901 356.450439,1084.870972 
	C362.113129,1086.901611 367.433533,1088.795044 372.670288,1090.896729 
	C404.154053,1103.532349 435.618622,1116.215942 467.101990,1129.059448 
	C467.114410,1129.235474 467.192566,1129.579712 467.192566,1129.579712 
z"/>
<path fill="#44925C" opacity="1.000000" stroke="none" 
	d="
M532.926758,1347.538086 
	C544.940186,1316.996460 557.163208,1286.721924 570.031128,1256.221313 
	C582.499573,1260.684570 594.330933,1265.354736 606.145203,1270.067627 
	C626.103271,1278.029663 646.050598,1286.018677 666.005310,1294.249268 
	C666.011475,1294.670898 666.014771,1294.839478 666.018066,1295.007935 
	C659.669312,1311.023560 653.345764,1327.049316 646.964905,1343.052124 
	C640.028870,1360.447388 633.039490,1377.821289 626.034546,1395.572754 
	C615.038757,1391.164062 603.723022,1387.061523 593.201294,1381.466064 
	C572.942261,1370.692261 553.132446,1359.073730 532.926758,1347.538086 
z"/>
<path fill="#4491D5" opacity="1.000000" stroke="none" 
	d="
M797.130615,1439.064453 
	C800.138489,1429.963135 803.467407,1420.951904 807.014038,1412.027222 
	C813.939148,1394.601685 820.985901,1377.224609 828.281311,1359.202393 
	C834.044922,1345.379761 839.509521,1332.182129 845.335205,1318.990112 
	C847.447693,1319.644287 849.199158,1320.292847 850.950684,1320.941406 
	C874.683655,1330.478516 898.394836,1340.070312 922.176086,1349.485474 
	C925.266541,1350.709106 925.226746,1352.136230 924.167786,1354.765991 
	C919.021484,1367.545166 914.031555,1380.387573 908.701050,1393.802490 
	C905.836609,1400.500854 903.128052,1406.553589 900.708130,1412.719604 
	C897.024048,1422.106812 893.539795,1431.572388 889.970703,1441.004761 
	C888.674072,1441.258057 887.375977,1441.739136 886.081055,1441.730713 
	C864.969482,1441.593994 843.854797,1441.562012 822.748657,1441.128662 
	C814.339417,1440.956055 805.948975,1439.865967 797.130615,1439.064453 
z"/>
<path fill="#49A752" opacity="1.000000" stroke="none" 
	d="
M873.482056,1246.998291 
	C858.888123,1240.999268 844.308838,1234.964478 829.696289,1229.011230 
	C815.226318,1223.116211 800.720337,1217.309570 786.238403,1211.443970 
	C784.873413,1210.891113 783.566406,1210.195190 781.969055,1209.441528 
	C791.166199,1186.417847 800.281921,1163.598022 809.555969,1140.399658 
	C816.820862,1140.744507 823.912598,1141.796753 831.037292,1142.118530 
	C843.518311,1142.682129 856.033936,1143.304688 868.508057,1142.950806 
	C879.793884,1142.630615 891.058472,1141.174927 902.302612,1139.946655 
	C907.244629,1139.406860 912.112610,1138.189087 917.380493,1137.241089 
	C911.342224,1153.373657 904.989990,1169.565308 898.520020,1185.709717 
	C890.440186,1205.871216 882.263489,1225.993896 873.956665,1246.533569 
	C873.784729,1246.933838 873.482056,1246.998291 873.482056,1246.998291 
z"/>
<path fill="#6B80D1" opacity="1.000000" stroke="none" 
	d="
M1003.403198,1423.999268 
	C1011.668945,1402.332031 1020.313538,1380.672485 1029.005371,1359.031982 
	C1034.554688,1345.215332 1040.173950,1331.426880 1046.289185,1317.310547 
	C1050.993896,1318.564819 1055.203979,1320.052979 1059.342896,1321.717651 
	C1078.558350,1329.445923 1097.734253,1337.273804 1117.000610,1344.872559 
	C1118.337524,1345.399780 1121.404541,1344.838135 1121.789307,1343.960083 
	C1124.837036,1337.003784 1127.429321,1329.847900 1130.161621,1322.753296 
	C1137.955444,1336.252197 1145.749268,1349.750977 1153.875977,1363.826660 
	C1106.243286,1390.792358 1056.454590,1410.936401 1003.403198,1423.999268 
z"/>
<path fill="#6F95C7" opacity="1.000000" stroke="none" 
	d="
M954.672852,246.845108 
	C951.197998,256.992249 947.355225,267.044983 943.452576,277.074432 
	C939.666260,286.804993 935.818542,296.511597 931.743713,306.613281 
	C931.489685,306.997864 930.997559,307.001221 930.774658,306.727905 
	C896.279785,292.597534 861.998840,278.762634 827.745239,264.860352 
	C822.412598,262.696014 817.204773,260.223969 811.970093,257.526184 
	C814.141113,251.598465 816.281250,246.038742 818.421387,240.479004 
	C835.016907,240.001450 851.631836,238.794189 868.203064,239.233261 
	C888.385803,239.768021 908.547607,241.490067 928.686279,243.101807 
	C937.259216,243.787933 945.750427,245.496567 954.672852,246.845108 
z"/>
<path fill="#6F95C7" opacity="1.000000" stroke="none" 
	d="
M450.039673,511.009888 
	C432.121765,503.654572 414.203278,496.300781 396.286316,488.943176 
	C389.999237,486.361328 383.716003,483.769989 377.080414,481.032227 
	C385.069702,470.356232 393.052002,459.520752 401.843506,449.387360 
	C411.953125,437.734833 422.778656,426.703461 433.844604,415.491516 
	C449.927063,422.085297 465.458130,428.589844 480.949982,435.454010 
	C476.526825,446.716461 472.107239,457.605164 467.767761,468.525665 
	C462.148346,482.667175 456.592804,496.834106 450.767242,510.995056 
	C450.524719,511.000000 450.039673,511.009888 450.039673,511.009888 
z"/>
<path fill="#6B80D1" opacity="1.000000" stroke="none" 
	d="
M1022.048706,433.941772 
	C1037.151001,439.942688 1052.253418,445.943604 1067.729980,451.994141 
	C1062.098511,463.325012 1056.155762,474.640167 1050.074585,485.880432 
	C1036.553711,510.872009 1022.963440,535.826111 1008.777527,560.956238 
	C997.525940,557.011536 986.898254,552.906006 976.206116,548.599243 
	C976.141663,548.398010 975.981506,548.006958 976.026428,547.640015 
	C985.453613,524.075562 994.821655,500.872223 1004.223511,477.682587 
	C1010.139099,463.091736 1016.105164,448.521332 1022.048706,433.941772 
z"/>
<path fill="#4BB682" opacity="1.000000" stroke="none" 
	d="
M356.069489,1084.829956 
	C352.516571,1094.248901 349.055023,1103.703491 345.383667,1113.076050 
	C342.065399,1121.547241 338.517883,1129.928711 335.000763,1138.717773 
	C325.531311,1120.564941 315.066620,1102.494141 307.007599,1083.407593 
	C297.259430,1060.320435 289.547577,1036.373535 280.962708,1012.406616 
	C300.941010,1019.993958 320.906921,1027.983643 340.883057,1035.947754 
	C349.337555,1039.318481 357.813416,1042.635498 366.608582,1046.395752 
	C362.696716,1057.378418 358.613159,1068.009888 354.119110,1078.464722 
	C352.772369,1081.597778 353.243713,1083.369385 356.069489,1084.829956 
z"/>
<path fill="#4388CE" opacity="1.000000" stroke="none" 
	d="
M1130.087646,1322.414551 
	C1127.429321,1329.847900 1124.837036,1337.003784 1121.789307,1343.960083 
	C1121.404541,1344.838135 1118.337524,1345.399780 1117.000610,1344.872559 
	C1097.734253,1337.273804 1078.558350,1329.445923 1059.342896,1321.717651 
	C1055.203979,1320.052979 1050.993896,1318.564819 1046.440308,1316.977295 
	C1046.064087,1316.959106 1046.023315,1316.482178 1046.006226,1316.243408 
	C1052.632324,1299.943726 1059.518555,1283.976318 1065.771240,1267.764648 
	C1067.661011,1262.864990 1069.891846,1262.770020 1073.944458,1264.439697 
	C1083.593140,1268.414917 1093.338501,1272.155640 1103.412598,1276.000977 
	C1112.524902,1291.365845 1121.269409,1306.720825 1130.087646,1322.414551 
z"/>
<path fill="#F6C740" opacity="1.000000" stroke="none" 
	d="
M480.989197,435.094391 
	C465.458130,428.589844 449.927063,422.085297 434.129089,415.342773 
	C450.515594,400.147797 466.802979,384.754028 483.948730,370.384521 
	C495.744202,360.498993 508.730194,352.034058 521.520752,342.844025 
	C519.764771,348.033356 517.672241,353.312897 515.076599,358.537781 
	C513.394592,359.433075 511.635376,360.141754 511.124908,361.369568 
	C504.832611,376.503815 498.656494,391.687561 492.590363,406.914246 
	C488.922424,416.121155 485.497986,425.425049 481.710266,434.762634 
	C481.300598,434.924744 481.144897,435.009583 480.989197,435.094391 
z"/>
<path fill="#6F95C7" opacity="1.000000" stroke="none" 
	d="
M890.435669,1441.069580 
	C893.539795,1431.572388 897.024048,1422.106812 900.708130,1412.719604 
	C903.128052,1406.553589 905.836609,1400.500854 908.689514,1394.184082 
	C935.835144,1404.811768 962.707031,1415.652832 989.802979,1426.771729 
	C977.895081,1429.541626 965.856934,1432.737793 953.610291,1434.368530 
	C932.776184,1437.142700 911.810913,1438.931641 890.435669,1441.069580 
z"/>
<path fill="#E47369" opacity="1.000000" stroke="none" 
	d="
M849.003174,501.107544 
	C850.684082,500.507965 852.205505,500.264893 854.459229,499.893738 
	C863.236267,502.902100 871.292725,506.008820 879.323181,509.181366 
	C894.458496,515.160828 909.578857,521.178284 924.787170,527.397095 
	C924.868958,527.614258 925.029968,528.049561 924.983337,528.413269 
	C922.973389,533.792786 921.010010,538.808533 919.046692,543.824341 
	C891.206726,538.477844 863.158508,536.702820 834.416016,538.869568 
	C838.917358,526.370056 843.880493,513.917053 849.003174,501.107544 
z"/>
<path fill="#4BB682" opacity="1.000000" stroke="none" 
	d="
M1038.185303,1160.532227 
	C1030.130981,1157.928955 1022.042053,1155.128296 1014.098450,1151.962769 
	C994.284729,1144.067505 974.537048,1136.006592 954.404419,1127.936035 
	C971.551453,1120.369141 989.057068,1112.878296 1007.317139,1105.064575 
	C1017.323853,1122.909790 1027.770386,1141.539429 1038.185303,1160.532227 
z"/>
<path fill="#DD4F43" opacity="1.000000" stroke="none" 
	d="
M919.418091,543.943481 
	C921.010010,538.808533 922.973389,533.792786 925.352173,528.427246 
	C942.505615,534.720703 959.243591,541.363831 975.981506,548.006958 
	C975.981506,548.006958 976.141663,548.398010 975.896729,548.821411 
	C974.412354,552.722046 973.172852,556.199341 971.933472,559.676636 
	C954.552185,554.471924 937.170837,549.267273 919.418091,543.943481 
z"/>
<path fill="#E47369" opacity="1.000000" stroke="none" 
	d="
M972.237427,559.888306 
	C973.172852,556.199341 974.412354,552.722046 975.961182,549.022644 
	C986.898254,552.906006 997.525940,557.011536 1008.519531,561.209595 
	C1006.797119,565.425598 1004.708862,569.549194 1002.520569,573.870239 
	C992.331543,569.190125 982.436523,564.645081 972.237427,559.888306 
z"/>
<path fill="#F6C740" opacity="1.000000" stroke="none" 
	d="
M817.970093,240.419113 
	C816.281250,246.038742 814.141113,251.598465 811.778320,257.583313 
	C811.555603,258.008484 811.162842,258.086304 811.162842,258.086304 
	C800.563354,253.862106 789.963928,249.637909 779.156494,245.114883 
	C788.821716,243.578598 798.691345,242.313049 808.569946,241.120697 
	C811.540222,240.762177 814.535095,240.607346 817.970093,240.419113 
z"/>
<path fill="#4BB682" opacity="1.000000" stroke="none" 
	d="
M1039.004883,1161.644531 
	C1038.776978,1161.751099 1038.491211,1161.575195 1038.117676,1161.157471 
	C1038.335449,1161.064331 1038.641235,1161.213257 1039.004883,1161.644531 
z"/>
<path fill="#4491D6" opacity="1.000000" stroke="none" 
	d="
M356.450439,1084.870972 
	C353.243713,1083.369385 352.772369,1081.597778 354.119110,1078.464722 
	C358.613159,1068.009888 362.696716,1057.378418 366.981567,1046.453125 
	C374.997864,1026.648438 383.005219,1007.219666 390.930664,987.757568 
	C396.613831,973.801453 402.187500,959.800781 407.815155,945.467224 
	C413.732178,930.691101 419.699554,916.290161 425.545990,901.840332 
	C446.636353,849.713928 467.686584,797.571228 488.742279,745.430786 
	C488.926697,744.974182 488.979156,744.464355 489.443420,743.584045 
	C490.861511,743.671143 491.929413,744.153564 492.997314,744.635986 
	C480.289093,776.203613 467.576141,807.769409 454.874084,839.339478 
	C442.233734,870.755981 429.608795,902.178650 416.963470,933.593140 
	C415.661407,936.827759 414.406769,940.093750 412.873688,943.219421 
	C411.458069,946.105591 411.985321,947.699341 415.089966,948.935547 
	C442.695282,959.928284 470.263336,971.014709 497.829987,982.104370 
	C504.453400,984.768921 510.915863,987.890442 517.669189,990.155151 
	C522.144775,991.656006 522.245850,993.824463 520.718811,997.529724 
	C514.140259,1013.491943 507.696808,1029.509888 501.219940,1045.513916 
	C491.255493,1070.135742 481.295074,1094.758911 471.368469,1119.395996 
	C470.754272,1120.920288 470.449097,1122.569092 469.711853,1124.703613 
	C468.645630,1126.459351 467.867645,1127.671387 467.089630,1128.883423 
	C435.618622,1116.215942 404.154053,1103.532349 372.670288,1090.896729 
	C367.433533,1088.795044 362.113129,1086.901611 356.450439,1084.870972 
z"/>
<path fill="#44925C" opacity="1.000000" stroke="none" 
	d="
M493.184937,744.652222 
	C491.929413,744.153564 490.861511,743.671143 489.492676,743.217773 
	C477.171600,738.516663 465.152344,733.784302 453.131042,729.057190 
	C446.344543,726.388611 439.554626,723.728699 432.396790,721.022339 
	C436.863556,708.741455 441.699799,696.503113 446.800507,684.002441 
	C464.166931,690.541260 481.271179,697.336670 498.368713,704.148926 
	C501.422607,705.365723 504.448669,706.652588 507.811676,708.040833 
	C503.079102,720.188904 498.465942,732.030334 493.794220,744.220032 
	C493.735626,744.568298 493.372528,744.668579 493.184937,744.652222 
z"/>
<path fill="#6B80D1" opacity="1.000000" stroke="none" 
	d="
M467.102051,1129.059448 
	C467.867645,1127.671387 468.645630,1126.459351 469.710175,1125.087402 
	C480.333038,1128.949951 490.682007,1132.940063 501.001526,1137.004883 
	C508.870087,1140.104370 516.701233,1143.298950 524.782593,1146.714966 
	C524.708740,1148.370728 524.401184,1149.762817 523.836182,1151.581055 
	C523.578674,1152.007324 523.132263,1152.100708 523.132263,1152.100708 
	C504.729492,1144.654663 486.326721,1137.208740 467.558258,1129.671143 
	C467.192566,1129.579712 467.114410,1129.235474 467.102051,1129.059448 
z"/>
<path fill="#F0A31A" opacity="1.000000" stroke="none" 
	d="
M481.964172,434.685333 
	C485.497986,425.425049 488.922424,416.121155 492.590363,406.914246 
	C498.656494,391.687561 504.832611,376.503815 511.124908,361.369568 
	C511.635376,360.141754 513.394592,359.433075 514.796875,358.742279 
	C512.880432,364.449951 516.327942,365.737244 520.552856,367.428619 
	C557.788330,382.335205 594.933716,397.466766 632.108032,412.526154 
	C633.180908,412.960815 634.278870,413.333527 635.695923,413.892883 
	C617.594666,459.808563 599.162292,505.566315 580.731750,551.324829 
	C579.804016,553.628296 578.892639,555.938416 577.948425,558.626648 
	C576.097778,562.314697 573.617004,560.502014 571.490112,559.649048 
	C553.647949,552.493896 535.834412,545.266724 518.033264,538.009827 
	C514.683167,536.644104 511.426422,535.049194 508.029541,532.882629 
	C517.911011,507.405518 527.889587,482.605804 537.990845,457.501373 
	C519.151245,449.829224 500.557678,442.257294 481.964172,434.685333 
z"/>
<path fill="#6B80D1" opacity="1.000000" stroke="none" 
	d="
M449.992188,511.380829 
	C450.039673,511.009888 450.524719,511.000000 451.097076,511.142883 
	C460.550903,514.902527 469.399200,518.603577 478.322876,522.112976 
	C487.842926,525.856934 497.434204,529.419800 506.994385,533.061707 
	C503.251221,542.802185 499.641418,552.596436 495.741577,562.273743 
	C479.604950,602.316223 463.380554,642.323364 447.019653,682.666321 
	C428.352570,675.508789 409.854218,668.028442 391.137878,660.267944 
	C394.581909,650.407776 398.115814,640.776489 401.928192,631.256653 
	C417.888245,591.403503 433.931732,551.583740 449.992188,511.380829 
z"/>
<path fill="#6E8CBD" opacity="1.000000" stroke="none" 
	d="
M507.175964,533.020752 
	C497.434204,529.419800 487.842926,525.856934 478.322876,522.112976 
	C469.399200,518.603577 460.550903,514.902527 451.339600,511.137939 
	C456.592804,496.834106 462.148346,482.667175 467.767761,468.525665 
	C472.107239,457.605164 476.526825,446.716461 480.949982,435.454010 
	C481.144897,435.009583 481.300598,434.924744 481.710236,434.762634 
	C500.557678,442.257294 519.151245,449.829224 537.990845,457.501373 
	C527.889587,482.605804 517.911011,507.405518 507.829956,532.571899 
	C507.727478,532.938538 507.357544,532.979858 507.175964,533.020752 
z"/>
<path fill="#6F95C6" opacity="1.000000" stroke="none" 
	d="
M873.353821,1247.364746 
	C873.482056,1246.998291 873.784729,1246.933838 873.934265,1246.890869 
	C875.524048,1247.479858 876.964355,1248.111816 878.712646,1248.887451 
	C869.964233,1271.463135 860.899048,1293.891724 851.875671,1316.337280 
	C851.392578,1317.538940 851.260864,1318.881836 850.958130,1320.550293 
	C849.199158,1320.292847 847.447693,1319.644287 845.304260,1318.758057 
	C844.912292,1318.520386 844.830383,1318.058960 844.830383,1318.058960 
	C854.295410,1294.616333 863.760498,1271.173828 873.353821,1247.364746 
z"/>
<path fill="#F0A31A" opacity="1.000000" stroke="none" 
	d="
M523.093140,1152.475098 
	C523.132263,1152.100708 523.578674,1152.007324 523.795959,1151.937500 
	C557.772705,1165.566162 591.525879,1179.280151 625.294006,1192.957275 
	C645.341797,1201.077271 665.412537,1209.140991 685.475098,1217.224609 
	C687.314087,1217.965454 689.169067,1218.666748 691.386597,1219.530518 
	C692.144165,1218.029297 692.793213,1216.743164 693.700928,1215.205811 
	C695.170898,1215.408203 696.382080,1215.861694 697.876587,1216.421143 
	C693.164856,1228.558350 688.567017,1240.402100 683.711853,1252.666992 
	C683.454529,1253.087891 682.984741,1253.180298 682.669739,1252.994019 
	C650.492493,1239.901733 618.630310,1226.995605 586.572571,1214.010376 
	C580.840149,1228.000610 575.298523,1241.525269 569.756897,1255.049927 
	C545.881714,1245.526978 522.031128,1235.941772 498.107788,1226.541260 
	C494.017944,1224.934082 495.129944,1222.468384 496.206818,1219.800903 
	C504.155426,1200.112061 512.144104,1180.439209 520.096802,1160.751953 
	C521.149902,1158.145142 522.071472,1155.484985 523.093140,1152.475098 
z"/>
<path fill="#6E8CBD" opacity="1.000000" stroke="none" 
	d="
M811.124634,258.459656 
	C811.162842,258.086304 811.555603,258.008484 811.747437,257.951355 
	C817.204773,260.223969 822.412598,262.696014 827.745239,264.860352 
	C861.998840,278.762634 896.279785,292.597534 930.735718,307.099609 
	C920.936035,332.520691 910.940918,357.292114 900.973267,382.074585 
	C894.905518,397.160797 888.899902,412.271973 882.831665,427.357971 
	C873.236755,451.211212 863.612732,475.052734 854.000977,498.899231 
	C814.099670,482.811859 774.198303,466.724518 733.853455,450.458374 
	C738.863892,438.044128 743.760925,425.904663 748.662781,413.767120 
	C769.265259,362.752502 789.869751,311.738739 810.467407,260.722229 
	C810.714966,260.109100 810.881836,259.463440 811.124634,258.459656 
z"/>
<path fill="#6B80D1" opacity="1.000000" stroke="none" 
	d="
M854.116089,499.102722 
	C863.612732,475.052734 873.236755,451.211212 882.831665,427.357971 
	C888.899902,412.271973 894.905518,397.160797 900.973267,382.074585 
	C910.940918,357.292114 920.936035,332.520691 930.958618,307.372925 
	C930.997559,307.001221 931.489685,306.997864 931.735535,306.996216 
	C972.225220,323.275452 1012.469055,339.556366 1053.353394,356.096436 
	C1042.951416,381.905884 1032.746338,407.227020 1021.887146,432.768738 
	C1020.285583,432.718018 1019.305115,432.528442 1018.395264,432.163208 
	C1004.390869,426.541046 990.415405,420.845947 976.376465,415.311646 
	C974.332703,414.506012 971.817078,412.616943 970.267029,416.491882 
	C958.628113,445.588104 946.961792,474.673767 935.156372,503.702728 
	C931.931091,511.633545 928.202942,519.359863 924.705444,527.179932 
	C909.578857,521.178284 894.458496,515.160828 879.323181,509.181366 
	C871.292725,506.008820 863.236267,502.902100 854.830994,499.736816 
	C854.470459,499.707977 854.231140,499.306244 854.116089,499.102722 
z"/>
<path fill="#6977C7" opacity="1.000000" stroke="none" 
	d="
M924.787231,527.397095 
	C928.202942,519.359863 931.931091,511.633545 935.156372,503.702728 
	C946.961792,474.673767 958.628113,445.588104 970.267029,416.491882 
	C971.817078,412.616943 974.332703,414.506012 976.376465,415.311646 
	C990.415405,420.845947 1004.390869,426.541046 1018.395264,432.163208 
	C1019.305115,432.528442 1020.285583,432.718018 1021.616577,432.994659 
	C1022.000000,433.000000 1022.020935,433.471619 1022.034790,433.706726 
	C1016.105164,448.521332 1010.139099,463.091736 1004.223511,477.682587 
	C994.821655,500.872223 985.453613,524.075562 976.026428,547.640015 
	C959.243591,541.363831 942.505615,534.720703 925.398804,528.063599 
	C925.029968,528.049561 924.868958,527.614258 924.787231,527.397095 
z"/>
<path fill="#49A752" opacity="1.000000" stroke="none" 
	d="
M682.984741,1253.180298 
	C682.984741,1253.180298 683.454529,1253.087891 683.690186,1253.051025 
	C702.348755,1260.570923 720.742554,1268.199707 739.200806,1275.669067 
	C774.153870,1289.813477 809.144043,1303.866455 844.474548,1318.008301 
	C844.830383,1318.058960 844.912292,1318.520386 844.943237,1318.752441 
	C839.509521,1332.182129 834.044922,1345.379761 828.336914,1358.836426 
	C820.346375,1356.192139 812.537903,1353.441162 804.862732,1350.358276 
	C772.229370,1337.250122 739.631653,1324.053101 707.029114,1310.868042 
	C695.648132,1306.265503 684.299927,1301.581543 672.914734,1296.989624 
	C670.929626,1296.188843 668.834412,1295.660889 666.404053,1295.007446 
	C666.014771,1294.839478 666.011475,1294.670898 666.284912,1294.044312 
	C672.035950,1280.117676 677.510315,1266.648926 682.984741,1253.180298 
z"/>
<path fill="#489E48" opacity="1.000000" stroke="none" 
	d="
M682.669678,1252.994019 
	C677.510315,1266.648926 672.035950,1280.117676 666.281982,1293.791382 
	C646.050598,1286.018677 626.103271,1278.029663 606.145203,1270.067627 
	C594.330933,1265.354736 582.499573,1260.684570 570.283569,1255.979492 
	C569.891235,1255.963867 569.845154,1255.503296 569.801025,1255.276611 
	C575.298523,1241.525269 580.840149,1228.000610 586.572571,1214.010376 
	C618.630310,1226.995605 650.492493,1239.901733 682.669678,1252.994019 
z"/>
</svg>