<?xml version="1.0" encoding="UTF-8"?>
<svg width="328px" height="328px" viewBox="0 0 328 328" version="1.1" xmlns="http://www.w3.org/2000/svg" xmlns:xlink="http://www.w3.org/1999/xlink">
    <title>Slice</title>
    <g id="Page-1" stroke="none" stroke-width="1" fill="none" fill-rule="evenodd">
        <g id="C-flatten" transform="translate(-0.140412, 3.070855)">
            <path d="M47.7726104,275.213436 C-15.1018006,212.339025 -15.1018006,110.399463 47.7726104,47.525052 C97.9914052,-2.69374277 174.589641,-13.6966842 236.423302,18.7668945 L238.292488,19.7639484 L200.178586,90.1012109 C168.949951,73.1792397 129.861568,78.5731792 104.341153,104.093595 C72.7086852,135.726062 72.7086852,187.012425 104.341153,218.644893 C129.99839,244.30213 169.334499,249.584468 200.575915,232.420608 L201.520124,231.893618 L240.974667,301.48772 C178.484833,336.914686 99.2889986,326.729824 47.7726104,275.213436 Z" id="Path" fill="#FFFFFF" fill-rule="nonzero"></path>
            <path d="M139.693415,1.8597791 L213.928144,31.8528589 L191.959636,86.2286105 C165.740864,75.6356436 135.587509,79.5128729 112.831043,96.7024748 L86.35268,86.0054305 L118.590532,6.21138878 C125.529163,4.28974664 132.580301,2.83746996 139.693415,1.8597791 Z" id="Path" fill-opacity="0.75" fill="#DB4437"></path>
            <path d="M28.0641261,225.141413 L118.928144,261.852859 L99.5055361,309.927493 C80.6096565,302.033345 62.9844339,290.425259 47.7726104,275.213436 C37.3303372,264.771162 28.6223318,253.251353 21.6485943,241.011926 L28.0641261,225.141413 Z" id="Path" fill-opacity="0.75" fill="#DB4437"></path>
            <path d="M218.064126,274.141413 L227.670837,278.023413 L240.974667,301.48772 C228.062161,308.808126 214.43635,314.181021 200.488836,317.644169 L218.064126,274.141413 Z" id="Path" fill-opacity="0.75" fill="#DB4437"></path>
            <path d="M69.0641261,32.1414128 L159.928144,68.8528589 L155.175735,80.6157173 C136.503679,82.1156373 118.371872,90.0628759 104.341153,104.093595 C93.1452315,115.289516 85.9119683,128.947517 82.6413632,143.324753 L32.35268,123.005431 L69.0641261,32.1414128 Z" id="Path" fill-opacity="0.75" fill="#DB4437"></path>
            <path d="M192.064126,47.1414128 L217.818535,57.5464128 L200.178586,90.1012109 C193.098653,86.2647822 185.614738,83.5753629 177.976535,82.00744 L192.064126,47.1414128 Z" id="Path" fill-opacity="0.75" fill="#DB4437"></path>
            <path d="M118.760448,6.16443083 L86.2166977,86.7168767 L32.5828017,65.0472029 C37.1554852,58.9375744 42.2187547,53.0789077 47.7726104,47.525052 C68.0400897,27.2575727 92.6042439,13.3775589 118.760448,6.16443083 Z" id="Path" fill-opacity="0.75" fill="#F4B400"></path>
            <path d="M170.064126,307.141413 L197.703361,318.309465 C186.561721,320.865719 175.232511,322.212052 163.913597,322.367545 L170.064126,307.141413 Z" id="Path" fill-opacity="0.75" fill="#F4B400"></path>
            <path d="M187.786613,2.48039332 L160.216698,70.7168767 L69.35268,34.0054305 L71.9194996,27.6506306 C106.222651,4.61481048 147.805375,-4.08110833 187.786613,2.48039332 Z" id="Path" fill-opacity="0.75" fill="#F4B400"></path>
            <path d="M104.341153,218.644893 C124.501244,238.804985 153.106644,246.385654 179.594593,240.382076 L155.216698,300.716877 L64.35268,264.005431 L90.2917318,199.803435 C93.941975,206.571058 98.6251154,212.928856 104.341153,218.644893 Z" id="Path" fill-opacity="0.75" fill="#F4B400"></path>
            <path d="M201.520124,231.893618 L234.73468,290.483618 L232.216698,296.716877 L141.35268,260.005431 L148.883259,241.368521 C166.279674,244.141445 184.499526,241.252887 200.575915,232.420608 L201.520124,231.893618 Z" id="Path" fill-opacity="0.75" fill="#0F9D58"></path>
            <path d="M89.0641261,261.141413 L179.928144,297.852859 L170.107126,322.163487 C136.826391,323.900287 103.322548,315.306754 74.629016,296.868286 L89.0641261,261.141413 Z" id="Path" fill-opacity="0.75" fill="#0F9D58"></path>
            <path d="M1.05074414,173.218406 L71.9281439,201.852859 L43.904373,271.211736 C17.9353826,243.416534 3.65083961,208.665681 1.05074414,173.218406 Z" id="Path" fill-opacity="0.75" fill="#0F9D58"></path>
            <path d="M11.5048177,103.056131 L67.9281439,125.852859 L31.2166977,216.716877 L7.19025527,207.012305 C-2.83205703,172.992103 -1.39386957,136.31333 11.5048177,103.056131 Z" id="Path" fill-opacity="0.75" fill="#0F9D58"></path>
            <path d="M236.423302,18.7668945 L238.292488,19.7639484 L201.98968,86.7568358 L128.35268,57.0054305 L151.100071,0.702529085 C180.082068,-1.20208536 209.637958,4.70419626 236.423302,18.7668945 Z" id="Path" fill-opacity="0.75" fill="#4285F4"></path>
            <path d="M187.51812,238.155222 L210.282231,247.350711 L240.974667,301.48772 C211.226274,318.352789 177.691878,324.881065 145.16002,321.534331 L177.790715,240.769303 C181.068347,240.104808 184.317419,239.234076 187.51812,238.155222 Z" id="Path" fill-opacity="0.75" fill="#4285F4"></path>
            <path d="M63.0641261,135.141413 L82.698616,143.074903 C76.6255539,169.38642 83.8397328,198.143473 104.341153,218.644893 C111.442186,225.745927 119.591009,231.286262 128.326021,235.221989 L117.216698,262.716877 L26.35268,226.005431 L63.0641261,135.141413 Z" id="Path" fill-opacity="0.75" fill="#4285F4"></path>
            <path d="M47.8059577,47.4908358 L75.9281439,58.8528589 L39.2166977,149.716877 L2.77895774,134.996518 C8.01624218,103.288094 22.7680413,72.8455067 47.0343552,48.2680242 L47.8059577,47.4908358 Z" id="Path" fill-opacity="0.75" fill="#4285F4"></path>
        </g>
    </g>
</svg>