<svg xmlns="http://www.w3.org/2000/svg" viewBox="0 0 1078 2396" width="1078" height="2396" role="img" aria-label="Schedule layout wireframe">
  <title>Schedule — layout wireframe (slots + tokens)</title>
  <rect width="1078" height="2396" fill="#ffffff"/>
  <g>
    <rect x="0" y="0" width="1078" height="2396" fill="none" fill-opacity="0" stroke="#5B6470" stroke-width="1" stroke-opacity="0.5"/>
  </g>
  <g>
    <rect x="0" y="0" width="1078" height="2396" fill="none" fill-opacity="0" stroke="#2E7D6B" stroke-width="1" stroke-opacity="0.5"/>
  </g>
  <g>
    <rect x="0" y="0" width="1078" height="2396" fill="none" fill-opacity="0" stroke="#8E6BA8" stroke-width="1" stroke-opacity="0.5"/>
  </g>
  <g>
    <rect x="0" y="0" width="1078" height="126" fill="none" fill-opacity="0" stroke="#B0813B" stroke-width="1" stroke-opacity="0.5"/>
  </g>
  <g>
    <rect x="0" y="0" width="1078" height="126" fill="none" fill-opacity="0" stroke="#3B72A8" stroke-width="1" stroke-opacity="0.5"/>
  </g>
  <g>
    <rect x="0" y="0" width="1078" height="126" fill="none" fill-opacity="0" stroke="#A85B6B" stroke-width="1" stroke-opacity="0.5"/>
  </g>
  <g>
    <rect x="408" y="0" width="262" height="126" fill="none" fill-opacity="0" stroke="#4F8A4A" stroke-width="1" stroke-opacity="0.5"/>
  </g>
  <g>
    <rect x="450" y="27" width="178" height="71" fill="none" fill-opacity="0" stroke="#7A7A33" stroke-width="1" stroke-opacity="0.5"/>
  </g>
  <g>
    <rect x="450" y="45" width="178" height="53" fill="none" fill-opacity="0" stroke="#5B6470" stroke-width="1" stroke-opacity="0.5"/>
  </g>
  <g>
    <rect x="450" y="45" width="178" height="53" fill="none" fill-opacity="0" stroke="#2E7D6B" stroke-width="1" stroke-opacity="0.5"/>
  </g>
  <g>
    <rect x="0" y="123" width="1078" height="3" fill="none" fill-opacity="0" stroke="#A85B6B" stroke-width="1" stroke-opacity="0.5"/>
  </g>
  <g>
    <rect x="0" y="118" width="1078" height="8" fill="#8C4190" fill-opacity="1" stroke="#A85B6B" stroke-width="1.5" stroke-opacity="1"/>
    <text x="3" y="130" font-family="system-ui, sans-serif" font-size="9" fill="#A85B6B">#FF8C4190</text>
  </g>
  <g>
    <rect x="0" y="126" width="1078" height="1110" fill="none" fill-opacity="0" stroke="#B0813B" stroke-width="1" stroke-opacity="0.5"/>
  </g>
  <g>
    <rect x="0" y="126" width="1078" height="1110" fill="none" fill-opacity="0" stroke="#3B72A8" stroke-width="1" stroke-opacity="0.5"/>
  </g>
  <g>
    <rect x="0" y="126" width="1078" height="1110" fill="none" fill-opacity="0" stroke="#A85B6B" stroke-width="1" stroke-opacity="0.5"/>
  </g>
  <g>
    <rect x="0" y="237" width="1078" height="283" fill="#FCFCFC" fill-opacity="1" stroke="#4F8A4A" stroke-width="1.5" stroke-opacity="1"/>
    <text x="3" y="249" font-family="system-ui, sans-serif" font-size="9" fill="#4F8A4A">#FFFCFCFC</text>
  </g>
  <g>
    <rect x="0" y="237" width="1078" height="283" fill="none" fill-opacity="0" stroke="#7A7A33" stroke-width="1" stroke-opacity="0.5"/>
  </g>
  <g>
    <rect x="42" y="269" width="826" height="112" fill="none" fill-opacity="0" stroke="#5B6470" stroke-width="1" stroke-opacity="0.5"/>
  </g>
  <g>
    <rect x="42" y="381" width="465" height="108" fill="none" fill-opacity="0" stroke="#5B6470" stroke-width="1" stroke-opacity="0.5"/>
  </g>
  <g>
    <rect x="42" y="392" width="465" height="43" fill="none" fill-opacity="0" stroke="#2E7D6B" stroke-width="1" stroke-opacity="0.5"/>
  </g>
  <g>
    <rect x="42" y="446" width="303" height="43" fill="none" fill-opacity="0" stroke="#2E7D6B" stroke-width="1" stroke-opacity="0.5"/>
  </g>
  <g>
    <rect x="910" y="269" width="126" height="126" fill="none" fill-opacity="0" stroke="#5B6470" stroke-width="1" stroke-opacity="0.5"/>
  </g>
  <g>
    <path d="M973.5,280 H973.5 A52.5,52.5 0 0 1 1026,332.5 V332.5 A52.5,52.5 0 0 1 973.5,385 H973.5 A52.5,52.5 0 0 1 921,332.5 V332.5 A52.5,52.5 0 0 1 973.5,280 Z" fill="none" fill-opacity="0" stroke="#2E7D6B" stroke-width="1.5" stroke-opacity="1"/>
  </g>
  <g>
    <rect x="942" y="301" width="63" height="63" fill="none" fill-opacity="0" stroke="#8E6BA8" stroke-width="1" stroke-opacity="0.5"/>
  </g>
  <g>
    <rect x="0" y="520" width="1078" height="111" fill="#F4EFF4" fill-opacity="1" stroke="#4F8A4A" stroke-width="1.5" stroke-opacity="1"/>
    <text x="3" y="532" font-family="system-ui, sans-serif" font-size="9" fill="#4F8A4A">#FFF4EFF4</text>
  </g>
  <g>
    <rect x="0" y="520" width="1078" height="111" fill="none" fill-opacity="0" stroke="#7A7A33" stroke-width="1" stroke-opacity="0.5"/>
  </g>
  <g>
    <rect x="0" y="520" width="1078" height="3" fill="none" fill-opacity="0" stroke="#5B6470" stroke-width="1" stroke-opacity="0.5"/>
  </g>
  <g>
    <rect x="42" y="544" width="199" height="63" fill="none" fill-opacity="0" stroke="#5B6470" stroke-width="1" stroke-opacity="0.5"/>
  </g>
  <g>
    <rect x="42" y="544" width="63" height="63" fill="none" fill-opacity="0" stroke="#2E7D6B" stroke-width="1" stroke-opacity="0.5"/>
  </g>
  <g>
    <rect x="126" y="551" width="115" height="49" fill="none" fill-opacity="0" stroke="#2E7D6B" stroke-width="1" stroke-opacity="0.5"/>
  </g>
  <g>
    <rect x="0" y="628" width="1078" height="3" fill="none" fill-opacity="0" stroke="#5B6470" stroke-width="1" stroke-opacity="0.5"/>
  </g>
  <g>
    <rect x="0" y="631" width="1078" height="305" fill="#FCFCFC" fill-opacity="1" stroke="#4F8A4A" stroke-width="1.5" stroke-opacity="1"/>
    <text x="3" y="643" font-family="system-ui, sans-serif" font-size="9" fill="#4F8A4A">#FFFCFCFC</text>
  </g>
  <g>
    <rect x="0" y="631" width="1078" height="305" fill="none" fill-opacity="0" stroke="#7A7A33" stroke-width="1" stroke-opacity="0.5"/>
  </g>
  <g>
    <rect x="42" y="663" width="513" height="49" fill="none" fill-opacity="0" stroke="#5B6470" stroke-width="1" stroke-opacity="0.5"/>
  </g>
  <g>
    <rect x="42" y="712" width="463" height="193" fill="none" fill-opacity="0" stroke="#5B6470" stroke-width="1" stroke-opacity="0.5"/>
  </g>
  <g>
    <rect x="42" y="723" width="215" height="43" fill="none" fill-opacity="0" stroke="#2E7D6B" stroke-width="1" stroke-opacity="0.5"/>
  </g>
  <g>
    <rect x="42" y="777" width="183" height="43" fill="none" fill-opacity="0" stroke="#2E7D6B" stroke-width="1" stroke-opacity="0.5"/>
  </g>
  <g>
    <path d="M63,841 H484 A21,21 0 0 1 505,862 V884 A21,21 0 0 1 484,905 H63 A21,21 0 0 1 42,884 V862 A21,21 0 0 1 63,841 Z" fill="#FFD5FC" fill-opacity="1" stroke="#2E7D6B" stroke-width="1.5" stroke-opacity="1"/>
    <text x="45" y="853" font-family="system-ui, sans-serif" font-size="9" fill="#2E7D6B">#FFFFD5FC  pad ·</text>
  </g>
  <g>
    <rect x="63" y="852" width="421" height="42" fill="none" fill-opacity="0" stroke="#8E6BA8" stroke-width="1" stroke-opacity="0.5"/>
  </g>
  <g>
    <rect x="63" y="852" width="42" height="42" fill="none" fill-opacity="0" stroke="#B0813B" stroke-width="1" stroke-opacity="0.5"/>
  </g>
  <g>
    <rect x="116" y="858" width="368" height="30" fill="none" fill-opacity="0" stroke="#B0813B" stroke-width="1" stroke-opacity="0.5"/>
  </g>
  <g>
    <rect x="910" y="663" width="126" height="126" fill="none" fill-opacity="0" stroke="#5B6470" stroke-width="1" stroke-opacity="0.5"/>
  </g>
  <g>
    <path d="M973.5,674 H973.5 A52.5,52.5 0 0 1 1026,726.5 V726.5 A52.5,52.5 0 0 1 973.5,779 H973.5 A52.5,52.5 0 0 1 921,726.5 V726.5 A52.5,52.5 0 0 1 973.5,674 Z" fill="none" fill-opacity="0" stroke="#2E7D6B" stroke-width="1.5" stroke-opacity="1"/>
  </g>
  <g>
    <rect x="942" y="695" width="63" height="63" fill="none" fill-opacity="0" stroke="#8E6BA8" stroke-width="1" stroke-opacity="0.5"/>
  </g>
  <g>
    <rect x="0" y="936" width="1078" height="111" fill="#F4EFF4" fill-opacity="1" stroke="#4F8A4A" stroke-width="1.5" stroke-opacity="1"/>
    <text x="3" y="948" font-family="system-ui, sans-serif" font-size="9" fill="#4F8A4A">#FFF4EFF4</text>
  </g>
  <g>
    <rect x="0" y="936" width="1078" height="111" fill="none" fill-opacity="0" stroke="#7A7A33" stroke-width="1" stroke-opacity="0.5"/>
  </g>
  <g>
    <rect x="0" y="936" width="1078" height="3" fill="none" fill-opacity="0" stroke="#5B6470" stroke-width="1" stroke-opacity="0.5"/>
  </g>
  <g>
    <rect x="42" y="960" width="199" height="63" fill="none" fill-opacity="0" stroke="#5B6470" stroke-width="1" stroke-opacity="0.5"/>
  </g>
  <g>
    <rect x="42" y="960" width="63" height="63" fill="none" fill-opacity="0" stroke="#2E7D6B" stroke-width="1" stroke-opacity="0.5"/>
  </g>
  <g>
    <rect x="126" y="967" width="115" height="49" fill="none" fill-opacity="0" stroke="#2E7D6B" stroke-width="1" stroke-opacity="0.5"/>
  </g>
  <g>
    <rect x="0" y="1044" width="1078" height="3" fill="none" fill-opacity="0" stroke="#5B6470" stroke-width="1" stroke-opacity="0.5"/>
  </g>
  <g>
    <rect x="0" y="1047" width="1078" height="189" fill="#FCFCFC" fill-opacity="1" stroke="#4F8A4A" stroke-width="1.5" stroke-opacity="1"/>
    <text x="3" y="1059" font-family="system-ui, sans-serif" font-size="9" fill="#4F8A4A">#FFFCFCFC</text>
  </g>
  <g>
    <rect x="0" y="1047" width="1078" height="189" fill="none" fill-opacity="0" stroke="#7A7A33" stroke-width="1" stroke-opacity="0.5"/>
  </g>
  <g>
    <rect x="42" y="1117" width="252" height="49" fill="none" fill-opacity="0" stroke="#5B6470" stroke-width="1" stroke-opacity="0.5"/>
  </g>
  <g>
    <rect x="0" y="126" width="1078" height="111" fill="#F4EFF4" fill-opacity="1" stroke="#4F8A4A" stroke-width="1.5" stroke-opacity="1"/>
    <text x="3" y="138" font-family="system-ui, sans-serif" font-size="9" fill="#4F8A4A">#FFF4EFF4</text>
  </g>
  <g>
    <rect x="0" y="126" width="1078" height="111" fill="none" fill-opacity="0" stroke="#7A7A33" stroke-width="1" stroke-opacity="0.5"/>
  </g>
  <g>
    <rect x="0" y="126" width="1078" height="3" fill="none" fill-opacity="0" stroke="#5B6470" stroke-width="1" stroke-opacity="0.5"/>
  </g>
  <g>
    <rect x="42" y="150" width="199" height="63" fill="none" fill-opacity="0" stroke="#5B6470" stroke-width="1" stroke-opacity="0.5"/>
  </g>
  <g>
    <rect x="42" y="150" width="63" height="63" fill="none" fill-opacity="0" stroke="#2E7D6B" stroke-width="1" stroke-opacity="0.5"/>
  </g>
  <g>
    <rect x="126" y="157" width="115" height="49" fill="none" fill-opacity="0" stroke="#2E7D6B" stroke-width="1" stroke-opacity="0.5"/>
  </g>
  <g>
    <rect x="0" y="234" width="1078" height="3" fill="none" fill-opacity="0" stroke="#5B6470" stroke-width="1" stroke-opacity="0.5"/>
  </g>
</svg>
