<svg xmlns="http://www.w3.org/2000/svg" viewBox="0 0 481 137" width="481" height="137" role="img" aria-label="SessionSpeakerChip layout wireframe">
  <title>SessionSpeakerChip — layout wireframe (slots + tokens)</title>
  <rect width="481" height="137" fill="#ffffff"/>
  <g>
    <rect x="0" y="0" width="481" height="137" fill="none" fill-opacity="0" stroke="#5B6470" stroke-width="1" stroke-opacity="0.5"/>
  </g>
  <g>
    <rect x="0" y="0" width="481" height="137" fill="none" fill-opacity="0" stroke="#2E7D6B" stroke-width="1" stroke-opacity="0.5"/>
  </g>
  <g>
    <path d="M89.5,16 H391.5 A52.5,52.5 0 0 1 444,68.5 V68.5 A52.5,52.5 0 0 1 391.5,121 H89.5 A52.5,52.5 0 0 1 37,68.5 V68.5 A52.5,52.5 0 0 1 89.5,16 Z" fill="#E9DDFF" fill-opacity="1" stroke="#8E6BA8" stroke-width="1.5" stroke-opacity="1"/>
    <text x="40" y="28" font-family="system-ui, sans-serif" font-size="9" fill="#8E6BA8">#FFE9DDFF</text>
  </g>
  <g>
    <rect x="37" y="27" width="84" height="84" fill="none" fill-opacity="0" stroke="#B0813B" stroke-width="1" stroke-opacity="0.5"/>
  </g>
  <g>
    <path d="M79,27 H79 A42,42 0 0 1 121,69 V69 A42,42 0 0 1 79,111 H79 A42,42 0 0 1 37,69 V69 A42,42 0 0 1 79,27 Z" fill="none" fill-opacity="0" stroke="#3B72A8" stroke-width="1.5" stroke-opacity="1"/>
  </g>
  <g>
    <path d="M79,27 H79 A42,42 0 0 1 121,69 V69 A42,42 0 0 1 79,111 H79 A42,42 0 0 1 37,69 V69 A42,42 0 0 1 79,27 Z" fill="none" fill-opacity="0" stroke="#A85B6B" stroke-width="1.5" stroke-opacity="1"/>
  </g>
  <g>
    <rect x="121" y="61" width="16" height="16" fill="none" fill-opacity="0" stroke="#B0813B" stroke-width="1" stroke-opacity="0.5"/>
  </g>
  <g>
    <rect x="137" y="24" width="307" height="89" fill="none" fill-opacity="0" stroke="#B0813B" stroke-width="1" stroke-opacity="0.5"/>
  </g>
  <g>
    <rect x="137" y="24" width="206" height="43" fill="none" fill-opacity="0" stroke="#3B72A8" stroke-width="1" stroke-opacity="0.5"/>
  </g>
  <g>
    <rect x="137" y="24" width="206" height="43" fill="none" fill-opacity="0" stroke="#A85B6B" stroke-width="1" stroke-opacity="0.5"/>
  </g>
  <g>
    <rect x="137" y="67" width="3" height="3" fill="none" fill-opacity="0" stroke="#3B72A8" stroke-width="1" stroke-opacity="0.5"/>
  </g>
  <g>
    <rect x="137" y="70" width="307" height="43" fill="none" fill-opacity="0" stroke="#3B72A8" stroke-width="1" stroke-opacity="0.5"/>
  </g>
  <g>
    <rect x="137" y="70" width="307" height="43" fill="none" fill-opacity="0" stroke="#A85B6B" stroke-width="1" stroke-opacity="0.5"/>
  </g>
</svg>
