<svg xmlns="http://www.w3.org/2000/svg" viewBox="0 0 1078 2396" width="1078" height="2396" role="img" aria-label="SessionDetails layout wireframe">
  <title>SessionDetails — layout wireframe (slots + tokens)</title>
  <rect width="1078" height="2396" fill="#ffffff"/>
  <g>
    <rect x="0" y="0" width="1078" height="2396" fill="none" fill-opacity="0" stroke="#5B6470" stroke-width="1" stroke-opacity="0.5"/>
  </g>
  <g>
    <rect x="0" y="0" width="1078" height="2396" fill="none" fill-opacity="0" stroke="#2E7D6B" stroke-width="1" stroke-opacity="0.5"/>
  </g>
  <g>
    <rect x="0" y="0" width="1078" height="2396" fill="none" fill-opacity="0" stroke="#8E6BA8" stroke-width="1" stroke-opacity="0.5"/>
  </g>
  <g>
    <rect x="0" y="0" width="1078" height="1855" fill="none" fill-opacity="0" stroke="#B0813B" stroke-width="1" stroke-opacity="0.5"/>
  </g>
  <g>
    <rect x="42" y="0" width="994" height="1282" fill="none" fill-opacity="0" stroke="#3B72A8" stroke-width="1" stroke-opacity="0.5"/>
  </g>
  <g>
    <rect x="42" y="0" width="994" height="276" fill="none" fill-opacity="0" stroke="#A85B6B" stroke-width="1" stroke-opacity="0.5"/>
  </g>
  <g>
    <rect x="42" y="0" width="994" height="276" fill="none" fill-opacity="0" stroke="#4F8A4A" stroke-width="1" stroke-opacity="0.5"/>
  </g>
  <g>
    <rect x="42" y="0" width="994" height="276" fill="none" fill-opacity="0" stroke="#7A7A33" stroke-width="1" stroke-opacity="0.5"/>
  </g>
  <g>
    <rect x="42" y="276" width="42" height="42" fill="none" fill-opacity="0" stroke="#A85B6B" stroke-width="1" stroke-opacity="0.5"/>
  </g>
  <g>
    <rect x="42" y="318" width="343" height="43" fill="none" fill-opacity="0" stroke="#A85B6B" stroke-width="1" stroke-opacity="0.5"/>
  </g>
  <g>
    <rect x="42" y="366" width="287" height="43" fill="none" fill-opacity="0" stroke="#A85B6B" stroke-width="1" stroke-opacity="0.5"/>
  </g>
  <g>
    <rect x="42" y="414" width="42" height="42" fill="none" fill-opacity="0" stroke="#A85B6B" stroke-width="1" stroke-opacity="0.5"/>
  </g>
  <g>
    <rect x="42" y="456" width="994" height="626" fill="none" fill-opacity="0" stroke="#A85B6B" stroke-width="1" stroke-opacity="0.5"/>
  </g>
  <g>
    <rect x="42" y="456" width="994" height="626" fill="none" fill-opacity="0" stroke="#4F8A4A" stroke-width="1" stroke-opacity="0.5"/>
  </g>
  <g>
    <rect x="42" y="456" width="994" height="626" fill="none" fill-opacity="0" stroke="#7A7A33" stroke-width="1" stroke-opacity="0.5"/>
  </g>
  <g>
    <rect x="42" y="1082" width="42" height="42" fill="none" fill-opacity="0" stroke="#A85B6B" stroke-width="1" stroke-opacity="0.5"/>
  </g>
  <g>
    <rect x="42" y="1124" width="707" height="116" fill="none" fill-opacity="0" stroke="#A85B6B" stroke-width="1" stroke-opacity="0.5"/>
  </g>
  <g>
    <rect x="42" y="1124" width="176" height="95" fill="none" fill-opacity="0" stroke="#4F8A4A" stroke-width="1" stroke-opacity="0.5"/>
  </g>
  <g>
    <path d="M84,1124 H150 A42,42 0 0 1 192,1166 V1177 A42,42 0 0 1 150,1219 H84 A42,42 0 0 1 42,1177 V1166 A42,42 0 0 1 84,1124 Z" fill="#FFEBFB" fill-opacity="1" stroke="#7A7A33" stroke-width="1.5" stroke-opacity="1"/>
    <text x="45" y="1136" font-family="system-ui, sans-serif" font-size="9" fill="#7A7A33">#FFFFEBFB  pad ·</text>
  </g>
  <g>
    <rect x="68" y="1150" width="98" height="43" fill="none" fill-opacity="0" stroke="#5B6470" stroke-width="1" stroke-opacity="0.5"/>
  </g>
  <g>
    <rect x="218" y="1124" width="307" height="95" fill="none" fill-opacity="0" stroke="#4F8A4A" stroke-width="1" stroke-opacity="0.5"/>
  </g>
  <g>
    <path d="M260,1124 H457 A42,42 0 0 1 499,1166 V1177 A42,42 0 0 1 457,1219 H260 A42,42 0 0 1 218,1177 V1166 A42,42 0 0 1 260,1124 Z" fill="#FFEBFB" fill-opacity="1" stroke="#7A7A33" stroke-width="1.5" stroke-opacity="1"/>
    <text x="221" y="1136" font-family="system-ui, sans-serif" font-size="9" fill="#7A7A33">#FFFFEBFB  pad ·</text>
  </g>
  <g>
    <rect x="244" y="1150" width="229" height="43" fill="none" fill-opacity="0" stroke="#5B6470" stroke-width="1" stroke-opacity="0.5"/>
  </g>
  <g>
    <rect x="525" y="1124" width="224" height="95" fill="none" fill-opacity="0" stroke="#4F8A4A" stroke-width="1" stroke-opacity="0.5"/>
  </g>
  <g>
    <path d="M567,1124 H681 A42,42 0 0 1 723,1166 V1177 A42,42 0 0 1 681,1219 H567 A42,42 0 0 1 525,1177 V1166 A42,42 0 0 1 567,1124 Z" fill="#FFEBFB" fill-opacity="1" stroke="#7A7A33" stroke-width="1.5" stroke-opacity="1"/>
    <text x="528" y="1136" font-family="system-ui, sans-serif" font-size="9" fill="#7A7A33">#FFFFEBFB  pad ·</text>
  </g>
  <g>
    <rect x="551" y="1150" width="146" height="43" fill="none" fill-opacity="0" stroke="#5B6470" stroke-width="1" stroke-opacity="0.5"/>
  </g>
  <g>
    <rect x="42" y="1240" width="42" height="42" fill="none" fill-opacity="0" stroke="#A85B6B" stroke-width="1" stroke-opacity="0.5"/>
  </g>
  <g>
    <rect x="0" y="1282" width="1078" height="111" fill="#F4EFF4" fill-opacity="1" stroke="#3B72A8" stroke-width="1.5" stroke-opacity="1"/>
    <text x="3" y="1294" font-family="system-ui, sans-serif" font-size="9" fill="#3B72A8">#FFF4EFF4</text>
  </g>
  <g>
    <rect x="0" y="1282" width="1078" height="111" fill="none" fill-opacity="0" stroke="#A85B6B" stroke-width="1" stroke-opacity="0.5"/>
  </g>
  <g>
    <rect x="0" y="1282" width="1078" height="3" fill="none" fill-opacity="0" stroke="#4F8A4A" stroke-width="1" stroke-opacity="0.5"/>
  </g>
  <g>
    <rect x="42" y="1306" width="272" height="63" fill="none" fill-opacity="0" stroke="#4F8A4A" stroke-width="1" stroke-opacity="0.5"/>
  </g>
  <g>
    <rect x="42" y="1306" width="63" height="63" fill="none" fill-opacity="0" stroke="#7A7A33" stroke-width="1" stroke-opacity="0.5"/>
  </g>
  <g>
    <rect x="126" y="1313" width="188" height="49" fill="none" fill-opacity="0" stroke="#7A7A33" stroke-width="1" stroke-opacity="0.5"/>
  </g>
  <g>
    <rect x="0" y="1390" width="1078" height="3" fill="none" fill-opacity="0" stroke="#4F8A4A" stroke-width="1" stroke-opacity="0.5"/>
  </g>
  <g>
    <rect x="0" y="1393" width="42" height="42" fill="none" fill-opacity="0" stroke="#3B72A8" stroke-width="1" stroke-opacity="0.5"/>
  </g>
  <g>
    <rect x="42" y="1435" width="994" height="378" fill="none" fill-opacity="0" stroke="#3B72A8" stroke-width="1" stroke-opacity="0.5"/>
  </g>
  <g>
    <rect x="42" y="1435" width="994" height="189" fill="#FCFCFC" fill-opacity="1" stroke="#A85B6B" stroke-width="1.5" stroke-opacity="1"/>
    <text x="45" y="1447" font-family="system-ui, sans-serif" font-size="9" fill="#A85B6B">#FFFCFCFC</text>
  </g>
  <g>
    <rect x="42" y="1435" width="994" height="189" fill="none" fill-opacity="0" stroke="#4F8A4A" stroke-width="1" stroke-opacity="0.5"/>
  </g>
  <g>
    <rect x="84" y="1456" width="147" height="147" fill="none" fill-opacity="0" stroke="#7A7A33" stroke-width="1" stroke-opacity="0.5"/>
  </g>
  <g>
    <path d="M157.5,1456 H157.5 A73.5,73.5 0 0 1 231,1529.5 V1529.5 A73.5,73.5 0 0 1 157.5,1603 H157.5 A73.5,73.5 0 0 1 84,1529.5 V1529.5 A73.5,73.5 0 0 1 157.5,1456 Z" fill="none" fill-opacity="0" stroke="#5B6470" stroke-width="1.5" stroke-opacity="1"/>
  </g>
  <g>
    <rect x="84" y="1456" width="147" height="147" fill="none" fill-opacity="0" stroke="#2E7D6B" stroke-width="1" stroke-opacity="0.5"/>
  </g>
  <g>
    <rect x="273" y="1484" width="250" height="49" fill="none" fill-opacity="0" stroke="#7A7A33" stroke-width="1" stroke-opacity="0.5"/>
  </g>
  <g>
    <rect x="273" y="1533" width="304" height="43" fill="none" fill-opacity="0" stroke="#7A7A33" stroke-width="1" stroke-opacity="0.5"/>
  </g>
  <g>
    <rect x="42" y="1624" width="994" height="189" fill="#FCFCFC" fill-opacity="1" stroke="#A85B6B" stroke-width="1.5" stroke-opacity="1"/>
    <text x="45" y="1636" font-family="system-ui, sans-serif" font-size="9" fill="#A85B6B">#FFFCFCFC</text>
  </g>
  <g>
    <rect x="42" y="1624" width="994" height="189" fill="none" fill-opacity="0" stroke="#4F8A4A" stroke-width="1" stroke-opacity="0.5"/>
  </g>
  <g>
    <rect x="84" y="1645" width="147" height="147" fill="none" fill-opacity="0" stroke="#7A7A33" stroke-width="1" stroke-opacity="0.5"/>
  </g>
  <g>
    <path d="M157.5,1645 H157.5 A73.5,73.5 0 0 1 231,1718.5 V1718.5 A73.5,73.5 0 0 1 157.5,1792 H157.5 A73.5,73.5 0 0 1 84,1718.5 V1718.5 A73.5,73.5 0 0 1 157.5,1645 Z" fill="none" fill-opacity="0" stroke="#5B6470" stroke-width="1.5" stroke-opacity="1"/>
  </g>
  <g>
    <rect x="84" y="1645" width="147" height="147" fill="none" fill-opacity="0" stroke="#2E7D6B" stroke-width="1" stroke-opacity="0.5"/>
  </g>
  <g>
    <rect x="273" y="1673" width="274" height="49" fill="none" fill-opacity="0" stroke="#7A7A33" stroke-width="1" stroke-opacity="0.5"/>
  </g>
  <g>
    <rect x="273" y="1722" width="304" height="43" fill="none" fill-opacity="0" stroke="#7A7A33" stroke-width="1" stroke-opacity="0.5"/>
  </g>
  <g>
    <rect x="0" y="1813" width="42" height="42" fill="none" fill-opacity="0" stroke="#3B72A8" stroke-width="1" stroke-opacity="0.5"/>
  </g>
</svg>
