<svg xmlns="http://www.w3.org/2000/svg" viewBox="0 0 1076 496" width="1076" height="496" role="img" aria-label="SessionItemView layout wireframe">
  <title>SessionItemView — layout wireframe (slots + tokens)</title>
  <rect width="1076" height="496" fill="#ffffff"/>
  <g>
    <rect x="0" y="0" width="1076" height="496" fill="none" fill-opacity="0" stroke="#5B6470" stroke-width="1" stroke-opacity="0.5"/>
  </g>
  <g>
    <rect x="0" y="0" width="1076" height="496" fill="none" fill-opacity="0" stroke="#2E7D6B" stroke-width="1" stroke-opacity="0.5"/>
  </g>
  <g>
    <rect x="0" y="0" width="1076" height="496" fill="#FCFCFC" fill-opacity="1" stroke="#8E6BA8" stroke-width="1.5" stroke-opacity="1"/>
    <text x="3" y="12" font-family="system-ui, sans-serif" font-size="9" fill="#8E6BA8">#FFFCFCFC</text>
  </g>
  <g>
    <rect x="42" y="21" width="992" height="454" fill="none" fill-opacity="0" stroke="#B0813B" stroke-width="1" stroke-opacity="0.5"/>
  </g>
  <g>
    <rect x="42" y="21" width="866" height="220" fill="none" fill-opacity="0" stroke="#3B72A8" stroke-width="1" stroke-opacity="0.5"/>
  </g>
  <g>
    <rect x="42" y="21" width="866" height="112" fill="none" fill-opacity="0" stroke="#A85B6B" stroke-width="1" stroke-opacity="0.5"/>
  </g>
  <g>
    <rect x="42" y="21" width="866" height="112" fill="none" fill-opacity="0" stroke="#4F8A4A" stroke-width="1" stroke-opacity="0.5"/>
  </g>
  <g>
    <rect x="42" y="144" width="465" height="43" fill="none" fill-opacity="0" stroke="#A85B6B" stroke-width="1" stroke-opacity="0.5"/>
  </g>
  <g>
    <rect x="42" y="144" width="465" height="43" fill="none" fill-opacity="0" stroke="#4F8A4A" stroke-width="1" stroke-opacity="0.5"/>
  </g>
  <g>
    <rect x="42" y="198" width="303" height="43" fill="none" fill-opacity="0" stroke="#A85B6B" stroke-width="1" stroke-opacity="0.5"/>
  </g>
  <g>
    <rect x="42" y="198" width="303" height="43" fill="none" fill-opacity="0" stroke="#4F8A4A" stroke-width="1" stroke-opacity="0.5"/>
  </g>
  <g>
    <path d="M971.5,32 H971.5 A52.5,52.5 0 0 1 1024,84.5 V84.5 A52.5,52.5 0 0 1 971.5,137 H971.5 A52.5,52.5 0 0 1 919,84.5 V84.5 A52.5,52.5 0 0 1 971.5,32 Z" fill="none" fill-opacity="0" stroke="#3B72A8" stroke-width="1.5" stroke-opacity="1"/>
  </g>
  <g>
    <rect x="940" y="53" width="63" height="63" fill="none" fill-opacity="0" stroke="#A85B6B" stroke-width="1" stroke-opacity="0.5"/>
  </g>
</svg>
