<svg xmlns="http://www.w3.org/2000/svg" viewBox="0 0 1076 2396" width="1076" height="2396" role="img" aria-label="SpeakerDetails layout wireframe">
  <title>SpeakerDetails — layout wireframe (slots + tokens)</title>
  <rect width="1076" height="2396" fill="#ffffff"/>
  <g>
    <rect x="0" y="0" width="1076" height="2396" fill="none" fill-opacity="0" stroke="#5B6470" stroke-width="1" stroke-opacity="0.5"/>
  </g>
  <g>
    <rect x="0" y="0" width="1076" height="2396" fill="none" fill-opacity="0" stroke="#2E7D6B" stroke-width="1" stroke-opacity="0.5"/>
  </g>
  <g>
    <rect x="0" y="0" width="1076" height="2396" fill="#FCFCFC" fill-opacity="1" stroke="#8E6BA8" stroke-width="1.5" stroke-opacity="1"/>
    <text x="3" y="12" font-family="system-ui, sans-serif" font-size="9" fill="#8E6BA8">#FFFCFCFC</text>
  </g>
  <g>
    <rect x="0" y="0" width="1076" height="2396" fill="none" fill-opacity="0" stroke="#B0813B" stroke-width="1" stroke-opacity="0.5"/>
  </g>
  <g>
    <rect x="0" y="0" width="1076" height="2396" fill="none" fill-opacity="0" stroke="#3B72A8" stroke-width="1" stroke-opacity="0.5"/>
  </g>
  <g>
    <rect x="0" y="168" width="1076" height="2228" fill="none" fill-opacity="0" stroke="#A85B6B" stroke-width="1" stroke-opacity="0.5"/>
  </g>
  <g>
    <rect x="0" y="168" width="1076" height="1379" fill="none" fill-opacity="0" stroke="#4F8A4A" stroke-width="1" stroke-opacity="0.5"/>
  </g>
  <g>
    <rect x="0" y="168" width="1076" height="1379" fill="none" fill-opacity="0" stroke="#7A7A33" stroke-width="1" stroke-opacity="0.5"/>
  </g>
  <g>
    <rect x="42" y="189" width="992" height="1337" fill="none" fill-opacity="0" stroke="#5B6470" stroke-width="1" stroke-opacity="0.5"/>
  </g>
  <g>
    <rect x="361" y="189" width="354" height="49" fill="none" fill-opacity="0" stroke="#2E7D6B" stroke-width="1" stroke-opacity="0.5"/>
  </g>
  <g>
    <rect x="517" y="238" width="42" height="42" fill="none" fill-opacity="0" stroke="#2E7D6B" stroke-width="1" stroke-opacity="0.5"/>
  </g>
  <g>
    <path d="M265,280 H811 A42,42 0 0 1 853,322 V868 A42,42 0 0 1 811,910 H265 A42,42 0 0 1 223,868 V322 A42,42 0 0 1 265,280 Z" fill="none" fill-opacity="0" stroke="#2E7D6B" stroke-width="1.5" stroke-opacity="1"/>
  </g>
  <g>
    <rect x="507" y="910" width="63" height="63" fill="none" fill-opacity="0" stroke="#2E7D6B" stroke-width="1" stroke-opacity="0.5"/>
  </g>
  <g>
    <rect x="42" y="973" width="992" height="364" fill="none" fill-opacity="0" stroke="#2E7D6B" stroke-width="1" stroke-opacity="0.5"/>
  </g>
  <g>
    <rect x="517" y="1337" width="42" height="42" fill="none" fill-opacity="0" stroke="#2E7D6B" stroke-width="1" stroke-opacity="0.5"/>
  </g>
  <g>
    <rect x="402" y="1400" width="273" height="126" fill="none" fill-opacity="0" stroke="#2E7D6B" stroke-width="1" stroke-opacity="0.5"/>
  </g>
  <g>
    <path d="M465.5,1411 H465.5 A52.5,52.5 0 0 1 518,1463.5 V1463.5 A52.5,52.5 0 0 1 465.5,1516 H465.5 A52.5,52.5 0 0 1 413,1463.5 V1463.5 A52.5,52.5 0 0 1 465.5,1411 Z" fill="none" fill-opacity="0" stroke="#8E6BA8" stroke-width="1.5" stroke-opacity="1"/>
  </g>
  <g>
    <rect x="434" y="1432" width="63" height="63" fill="none" fill-opacity="0" stroke="#B0813B" stroke-width="1" stroke-opacity="0.5"/>
  </g>
  <g>
    <path d="M612.5,1411 H612.5 A52.5,52.5 0 0 1 665,1463.5 V1463.5 A52.5,52.5 0 0 1 612.5,1516 H612.5 A52.5,52.5 0 0 1 560,1463.5 V1463.5 A52.5,52.5 0 0 1 612.5,1411 Z" fill="none" fill-opacity="0" stroke="#8E6BA8" stroke-width="1.5" stroke-opacity="1"/>
  </g>
  <g>
    <rect x="581" y="1432" width="63" height="63" fill="none" fill-opacity="0" stroke="#B0813B" stroke-width="1" stroke-opacity="0.5"/>
  </g>
  <g>
    <rect x="517" y="1547" width="42" height="42" fill="none" fill-opacity="0" stroke="#4F8A4A" stroke-width="1" stroke-opacity="0.5"/>
  </g>
  <g>
    <rect x="0" y="1589" width="1076" height="328" fill="none" fill-opacity="0" stroke="#4F8A4A" stroke-width="1" stroke-opacity="0.5"/>
  </g>
  <g>
    <rect x="0" y="1589" width="1076" height="111" fill="#F4EFF4" fill-opacity="1" stroke="#7A7A33" stroke-width="1.5" stroke-opacity="1"/>
    <text x="3" y="1601" font-family="system-ui, sans-serif" font-size="9" fill="#7A7A33">#FFF4EFF4</text>
  </g>
  <g>
    <rect x="0" y="1589" width="1076" height="111" fill="none" fill-opacity="0" stroke="#5B6470" stroke-width="1" stroke-opacity="0.5"/>
  </g>
  <g>
    <rect x="0" y="1589" width="1076" height="3" fill="none" fill-opacity="0" stroke="#2E7D6B" stroke-width="1" stroke-opacity="0.5"/>
  </g>
  <g>
    <rect x="42" y="1613" width="269" height="63" fill="none" fill-opacity="0" stroke="#2E7D6B" stroke-width="1" stroke-opacity="0.5"/>
  </g>
  <g>
    <rect x="42" y="1613" width="63" height="63" fill="none" fill-opacity="0" stroke="#8E6BA8" stroke-width="1" stroke-opacity="0.5"/>
  </g>
  <g>
    <rect x="126" y="1620" width="185" height="49" fill="none" fill-opacity="0" stroke="#8E6BA8" stroke-width="1" stroke-opacity="0.5"/>
  </g>
  <g>
    <rect x="0" y="1697" width="1076" height="3" fill="none" fill-opacity="0" stroke="#2E7D6B" stroke-width="1" stroke-opacity="0.5"/>
  </g>
  <g>
    <rect x="0" y="1700" width="21" height="21" fill="none" fill-opacity="0" stroke="#7A7A33" stroke-width="1" stroke-opacity="0.5"/>
  </g>
  <g>
    <rect x="42" y="1742" width="992" height="154" fill="none" fill-opacity="0" stroke="#7A7A33" stroke-width="1" stroke-opacity="0.5"/>
  </g>
  <g>
    <rect x="42" y="1763" width="992" height="112" fill="none" fill-opacity="0" stroke="#5B6470" stroke-width="1" stroke-opacity="0.5"/>
  </g>
  <g>
    <rect x="42" y="1763" width="992" height="112" fill="none" fill-opacity="0" stroke="#2E7D6B" stroke-width="1" stroke-opacity="0.5"/>
  </g>
  <g>
    <rect x="0" y="0" width="1076" height="168" fill="none" fill-opacity="0" stroke="#3B72A8" stroke-width="1" stroke-opacity="0.5"/>
  </g>
  <g>
    <rect x="0" y="0" width="1076" height="168" fill="none" fill-opacity="0" stroke="#A85B6B" stroke-width="1" stroke-opacity="0.5"/>
  </g>
  <g>
    <rect x="0" y="0" width="1076" height="168" fill="none" fill-opacity="0" stroke="#4F8A4A" stroke-width="1" stroke-opacity="0.5"/>
  </g>
  <g>
    <rect x="11" y="21" width="126" height="126" fill="none" fill-opacity="0" stroke="#7A7A33" stroke-width="1" stroke-opacity="0.5"/>
  </g>
  <g>
    <path d="M74.5,32 H74.5 A52.5,52.5 0 0 1 127,84.5 V84.5 A52.5,52.5 0 0 1 74.5,137 H74.5 A52.5,52.5 0 0 1 22,84.5 V84.5 A52.5,52.5 0 0 1 74.5,32 Z" fill="none" fill-opacity="0" stroke="#5B6470" stroke-width="1.5" stroke-opacity="1"/>
  </g>
  <g>
    <rect x="43" y="53" width="63" height="63" fill="none" fill-opacity="0" stroke="#2E7D6B" stroke-width="1" stroke-opacity="0.5"/>
  </g>
  <g>
    <rect x="322" y="47" width="432" height="74" fill="none" fill-opacity="0" stroke="#7A7A33" stroke-width="1" stroke-opacity="0.5"/>
  </g>
  <g>
    <rect x="322" y="47" width="432" height="74" fill="none" fill-opacity="0" stroke="#5B6470" stroke-width="1" stroke-opacity="0.5"/>
  </g>
  <g>
    <rect x="322" y="47" width="432" height="74" fill="none" fill-opacity="0" stroke="#2E7D6B" stroke-width="1" stroke-opacity="0.5"/>
  </g>
  <g>
    <rect x="364" y="47" width="348" height="74" fill="none" fill-opacity="0" stroke="#8E6BA8" stroke-width="1" stroke-opacity="0.5"/>
  </g>
</svg>
