<svg xmlns="http://www.w3.org/2000/svg" viewBox="0 0 1076 210" width="1076" height="210" role="img" aria-label="SpeakerItemView layout wireframe">
  <title>SpeakerItemView — layout wireframe (slots + tokens)</title>
  <rect width="1076" height="210" fill="#ffffff"/>
  <g>
    <rect x="0" y="0" width="1076" height="210" fill="none" fill-opacity="0" stroke="#5B6470" stroke-width="1" stroke-opacity="0.5"/>
  </g>
  <g>
    <rect x="0" y="0" width="1076" height="210" fill="none" fill-opacity="0" stroke="#2E7D6B" stroke-width="1" stroke-opacity="0.5"/>
  </g>
  <g>
    <rect x="0" y="0" width="1076" height="210" fill="#FCFCFC" fill-opacity="1" stroke="#8E6BA8" stroke-width="1.5" stroke-opacity="1"/>
    <text x="3" y="12" font-family="system-ui, sans-serif" font-size="9" fill="#8E6BA8">#FFFCFCFC</text>
  </g>
  <g>
    <rect x="0" y="0" width="1076" height="210" fill="none" fill-opacity="0" stroke="#B0813B" stroke-width="1" stroke-opacity="0.5"/>
  </g>
  <g>
    <rect x="42" y="21" width="168" height="168" fill="none" fill-opacity="0" stroke="#3B72A8" stroke-width="1" stroke-opacity="0.5"/>
  </g>
  <g>
    <path d="M126,21 H126 A84,84 0 0 1 210,105 V105 A84,84 0 0 1 126,189 H126 A84,84 0 0 1 42,105 V105 A84,84 0 0 1 126,21 Z" fill="none" fill-opacity="0" stroke="#A85B6B" stroke-width="1.5" stroke-opacity="1"/>
  </g>
  <g>
    <rect x="42" y="21" width="168" height="168" fill="none" fill-opacity="0" stroke="#4F8A4A" stroke-width="1" stroke-opacity="0.5"/>
  </g>
  <g>
    <rect x="252" y="47" width="254" height="63" fill="none" fill-opacity="0" stroke="#3B72A8" stroke-width="1" stroke-opacity="0.5"/>
  </g>
  <g>
    <rect x="252" y="110" width="304" height="53" fill="none" fill-opacity="0" stroke="#3B72A8" stroke-width="1" stroke-opacity="0.5"/>
  </g>
</svg>
